<svg width="13" height="20" viewBox="0 0 13 20" fill="none" xmlns="http://www.w3.org/2000/svg">
<g clip-path="url(#clip0_46_738)">
<path d="M9.91667 5.16667V14.75C9.91667 16.5917 8.425 18.0833 6.58333 18.0833C4.74167 18.0833 3.25 16.5917 3.25 14.75V4.33333C3.25 3.18333 4.18333 2.25 5.33333 2.25C6.48333 2.25 7.41667 3.18333 7.41667 4.33333V13.0833C7.41667 13.5417 7.04583 13.9167 6.58333 13.9167C6.12083 13.9167 5.75 13.5417 5.75 13.0833V5.16667H4.5V13.0833C4.5 14.2333 5.43333 15.1667 6.58333 15.1667C7.73333 15.1667 8.66667 14.2333 8.66667 13.0833V4.33333C8.66667 2.49167 7.175 1 5.33333 1C3.49167 1 2 2.49167 2 4.33333V14.75C2 17.2833 4.05417 19.3333 6.58333 19.3333C9.1125 19.3333 11.1667 17.2833 11.1667 14.75V5.16667H9.91667Z" fill="#2D2D2D"/>
</g>
<defs>
<clipPath id="clip0_46_738">
<rect width="13" height="20" fill="white"/>
</clipPath>
</defs>
</svg>
