<svg width="24" height="24" viewBox="0 0 24 24" fill="none" xmlns="http://www.w3.org/2000/svg">
<path d="M18.6649 18.5656V23.4005C18.6649 23.9446 18.0011 24.2006 17.6321 23.8156L11.9335 18.5656H7.12884C5.6309 18.5656 4.4078 17.3425 4.4078 15.8445V5.37206C4.4078 3.87441 5.6309 2.65131 7.12884 2.65131H20.7825C22.2805 2.65131 23.5036 3.87412 23.5036 5.37206V15.8445C23.5036 17.3425 22.2805 18.5656 20.7825 18.5656H18.6649ZM8.95158 9.18285C9.51897 9.18285 9.97886 9.64274 9.97886 10.2101C9.97886 10.7775 9.51897 11.2374 8.95158 11.2374C8.38418 11.2374 7.92429 10.7775 7.92429 10.2101C7.92429 9.64274 8.38418 9.18285 8.95158 9.18285ZM18.9598 9.18285C19.5272 9.18285 19.9871 9.64274 19.9871 10.2101C19.9871 10.7775 19.5272 11.2374 18.9598 11.2374C18.3924 11.2374 17.9325 10.7775 17.9325 10.2101C17.9325 9.64274 18.3924 9.18285 18.9598 9.18285ZM15.6237 9.18285C16.1911 9.18285 16.651 9.64274 16.651 10.2101C16.651 10.7775 16.1911 11.2374 15.6237 11.2374C15.0563 11.2374 14.5964 10.7775 14.5964 10.2101C14.5964 9.64274 15.0563 9.18285 15.6237 9.18285ZM12.2877 9.18285C12.855 9.18285 13.3149 9.64274 13.3149 10.2101C13.3149 10.7775 12.855 11.2374 12.2877 11.2374C11.7203 11.2374 11.2604 10.7775 11.2604 10.2101C11.2604 9.64274 11.7203 9.18285 12.2877 9.18285ZM3.21811 14.7141C4.00717 14.7141 4.00717 15.9143 3.21811 15.9143C1.72017 15.9143 0.49707 14.6912 0.49707 13.1932V2.72075C0.49707 1.2231 1.72017 0 3.21811 0H16.8721C17.6612 0 17.6612 1.19986 16.8721 1.19986H3.21811C2.38285 1.19986 1.69722 1.88549 1.69722 2.72075V13.1932C1.69722 14.0285 2.38285 14.7141 3.21811 14.7141ZM17.4651 22.0335V17.9654C17.4651 17.6342 17.7338 17.3654 18.065 17.3654H20.7825C21.6178 17.3654 22.3037 16.6798 22.3037 15.8445V5.37206C22.3037 4.53681 21.6178 3.85117 20.7825 3.85117H7.12884C6.29329 3.85117 5.60766 4.53681 5.60766 5.37206V15.8445C5.60766 16.6798 6.29329 17.3654 7.12884 17.3654L12.1659 17.3669C12.3109 17.3669 12.4564 17.4189 12.5715 17.5249L17.4651 22.0335Z" fill="white"/>
</svg>
