<svg width="18" height="18" viewBox="0 0 18 18" fill="none" xmlns="http://www.w3.org/2000/svg">
<path d="M16.1667 13.1189C16.5589 12.3263 16.7535 11.4505 16.734 10.5664C16.7146 9.68229 16.4816 8.81598 16.055 8.04135C15.6284 7.26672 15.0208 6.60673 14.284 6.11767C13.5472 5.62861 12.703 5.32498 11.8235 5.23266C11.5442 4.55129 11.1305 3.93315 10.6071 3.41511C10.0837 2.89707 9.46137 2.48974 8.77716 2.21742C8.09296 1.94509 7.36092 1.81334 6.6247 1.83004C5.88848 1.84673 5.16317 2.01152 4.49201 2.31458C3.82085 2.61764 3.2176 3.05275 2.71824 3.59398C2.21887 4.13521 1.83361 4.77147 1.58545 5.4648C1.33728 6.15813 1.23129 6.89434 1.27379 7.62952C1.31629 8.3647 1.50641 9.08379 1.83282 9.74391L1.30618 11.5313C1.25539 11.7014 1.25155 11.882 1.29507 12.0541C1.33858 12.2263 1.42783 12.3834 1.55335 12.5089C1.67888 12.6345 1.83602 12.7237 2.00813 12.7672C2.18024 12.8107 2.36092 12.8069 2.53102 12.7561L4.32118 12.2295C4.90308 12.5167 5.53134 12.6983 6.17673 12.7659C6.46192 13.4628 6.88755 14.0934 7.42709 14.6186C7.96663 15.1438 8.60853 15.5522 9.3128 15.8185C10.0171 16.0848 10.7686 16.2032 11.5207 16.1664C12.2727 16.1296 13.0091 15.9383 13.684 15.6045L15.4685 16.1311C15.6386 16.1819 15.8193 16.1857 15.9914 16.1422C16.1635 16.0987 16.3207 16.0095 16.4462 15.8839C16.5717 15.7584 16.661 15.6013 16.7045 15.4291C16.748 15.257 16.7442 15.0764 16.6934 14.9063L16.1667 13.1189ZM4.35915 11.3555C4.31894 11.3554 4.27892 11.3611 4.24032 11.3723L2.28774 11.9468C2.26354 11.9539 2.23789 11.9543 2.21347 11.948C2.18905 11.9418 2.16676 11.9291 2.14893 11.9112C2.1311 11.8934 2.1184 11.8711 2.11214 11.8467C2.10588 11.8223 2.10631 11.7966 2.11337 11.7724L2.68782 9.81985C2.71871 9.71342 2.70686 9.59915 2.65477 9.50133C2.13002 8.51997 1.97539 7.38272 2.21909 6.29688C2.46278 5.21104 3.08856 4.24892 3.98236 3.58593C4.87615 2.92293 5.97844 2.6032 7.08828 2.68502C8.19811 2.76684 9.24159 3.24477 10.0285 4.03167C10.8154 4.81857 11.2933 5.86205 11.3751 6.97189C11.457 8.08173 11.1372 9.18401 10.4742 10.0778C9.81124 10.9716 8.84913 11.5974 7.76329 11.8411C6.67745 12.0848 5.54019 11.9301 4.55883 11.4054C4.49742 11.3725 4.42881 11.3554 4.35915 11.3555ZM15.3075 13.1948L15.882 15.1474C15.889 15.1716 15.8894 15.1973 15.8832 15.2217C15.8769 15.2461 15.8642 15.2684 15.8464 15.2862C15.8286 15.3041 15.8063 15.3168 15.7819 15.323C15.7574 15.3293 15.7318 15.3289 15.7076 15.3218L13.755 14.7473C13.6486 14.7165 13.5343 14.7284 13.4365 14.7804C12.8913 15.0718 12.2935 15.2514 11.678 15.3085C11.0625 15.3657 10.4418 15.2993 9.85232 15.1133C9.26283 14.9273 8.71645 14.6254 8.24525 14.2253C7.77405 13.8252 7.38752 13.335 7.10837 12.7835C7.89722 12.7322 8.66563 12.5107 9.36083 12.1344C10.056 11.7581 10.6615 11.2357 11.1358 10.6033C11.6101 9.97083 11.9419 9.24323 12.1084 8.47045C12.2749 7.69766 12.2723 6.89799 12.1006 6.12633C12.8174 6.26036 13.4925 6.56143 14.0712 7.00513C14.6499 7.44883 15.1159 8.02267 15.4314 8.68012C15.7469 9.33756 15.9031 10.0601 15.8872 10.7892C15.8712 11.5182 15.6837 12.2333 15.3399 12.8763C15.2887 12.9745 15.2779 13.0888 15.3096 13.1948H15.3075Z" fill="white"/>
</svg>
