<svg width="106" height="33" viewBox="0 0 106 33" fill="none" xmlns="http://www.w3.org/2000/svg">
<rect width="106" height="33" rx="5" fill="#383838"/>
<path opacity="0.75" d="M8.17773 23V10.1328H17.2656V11.6445H10.208V15.5029H16.2812V17.0498H10.208V23H8.17773ZM18.8213 23V14.0088H20.7725V23H18.8213ZM18.6455 12.1543V10.0098H20.6582V12.1543H18.6455ZM22.9258 23V10.0449H24.877V23H22.9258ZM30.3438 23.1406C29.8809 23.1406 29.4414 23.0586 29.0254 22.8945C28.6094 22.7246 28.2695 22.4434 28.0059 22.0508C27.7422 21.6523 27.6104 21.1074 27.6104 20.416V15.3359H26.3711V14.0088H27.6191L27.6982 11.2314L29.5703 10.7393V14.0088H31.5479V15.3359H29.5703V20.2051C29.5703 20.7676 29.6758 21.1572 29.8867 21.374C30.0977 21.585 30.3643 21.6904 30.6865 21.6904C30.833 21.6904 31.0059 21.667 31.2051 21.6201C31.4043 21.5674 31.6123 21.4971 31.8291 21.4092L32.1455 22.7188C31.8408 22.8594 31.5361 22.9648 31.2314 23.0352C30.9268 23.1055 30.6309 23.1406 30.3438 23.1406ZM37.0674 23.2109C36.1182 23.2109 35.3418 23 34.7383 22.5781C34.1348 22.1562 33.6895 21.5879 33.4023 20.873C33.1152 20.1582 32.9717 19.3672 32.9717 18.5C32.9717 17.5215 33.1299 16.6807 33.4463 15.9775C33.7627 15.2744 34.2197 14.7354 34.8174 14.3604C35.4209 13.9854 36.1475 13.7979 36.9971 13.7979C37.835 13.7979 38.5234 13.9824 39.0625 14.3516C39.6074 14.7148 40.0117 15.2129 40.2754 15.8457C40.5449 16.4785 40.6797 17.1963 40.6797 17.999C40.6797 18.0225 40.6768 18.1016 40.6709 18.2363C40.6709 18.3711 40.668 18.5088 40.6621 18.6494C40.6621 18.7842 40.6592 18.8779 40.6533 18.9307H34.9316C34.9434 19.3818 35.0137 19.8301 35.1426 20.2754C35.2773 20.7207 35.4971 21.0898 35.8018 21.3828C36.1064 21.6758 36.5195 21.8223 37.041 21.8223C37.6504 21.8223 38.1016 21.6641 38.3945 21.3477C38.6875 21.0254 38.9102 20.6592 39.0625 20.249L40.5303 20.5742C40.3955 21.0957 40.167 21.5557 39.8447 21.9541C39.5283 22.3467 39.1357 22.6543 38.667 22.877C38.1982 23.0996 37.665 23.2109 37.0674 23.2109ZM34.9316 17.6475H38.8428C38.8486 16.833 38.708 16.2207 38.4209 15.8105C38.1338 15.3945 37.6445 15.1865 36.9531 15.1865C36.5605 15.1865 36.2324 15.2715 35.9688 15.4414C35.7109 15.6055 35.5059 15.8193 35.3535 16.083C35.207 16.3408 35.1016 16.6104 35.0371 16.8916C34.9727 17.167 34.9375 17.4189 34.9316 17.6475ZM42.3584 23V14.0088H44.3184V15.3535C44.6406 14.8379 45.0186 14.4658 45.4521 14.2373C45.8916 14.0088 46.3955 13.8945 46.9639 13.8945V15.626C46.3252 15.626 45.8096 15.7666 45.417 16.0479C45.0303 16.3232 44.749 16.6924 44.5732 17.1553C44.4033 17.6123 44.3184 18.1133 44.3184 18.6582V23H42.3584ZM56.9922 23.2109C56.3652 23.2109 55.8115 23.0879 55.3311 22.8418C54.8506 22.5898 54.4639 22.2324 54.1709 21.7695L54.0742 23H52.5713V10.0449H54.5312V14.9492C54.8125 14.6094 55.1523 14.334 55.5508 14.123C55.9551 13.9062 56.4297 13.7979 56.9746 13.7979C58.1406 13.7979 59.0898 14.1846 59.8223 14.958C60.5605 15.7256 60.9297 16.8711 60.9297 18.3945C60.9297 19.4434 60.7744 20.3252 60.4639 21.04C60.1592 21.7549 59.7139 22.2969 59.1279 22.666C58.542 23.0293 57.8301 23.2109 56.9922 23.2109ZM56.8516 21.8311C57.6074 21.8311 58.1406 21.5527 58.4512 20.9961C58.7676 20.4395 58.9258 19.5869 58.9258 18.4385C58.9258 17.3955 58.7617 16.5928 58.4336 16.0303C58.1055 15.4619 57.5811 15.1777 56.8604 15.1777C56.5908 15.1777 56.3154 15.2188 56.0342 15.3008C55.7588 15.377 55.501 15.5293 55.2607 15.7578C55.0264 15.9805 54.8359 16.3057 54.6895 16.7334C54.543 17.1611 54.4697 17.7207 54.4697 18.4121C54.4697 19.1035 54.5254 19.707 54.6367 20.2227C54.748 20.7324 54.9736 21.1279 55.3135 21.4092C55.6533 21.6904 56.166 21.8311 56.8516 21.8311ZM62.8633 25.7861C62.7168 25.7861 62.5615 25.7715 62.3975 25.7422C62.2334 25.7188 62.0693 25.6865 61.9053 25.6455L62.1338 24.0547C62.2275 24.0605 62.3154 24.0693 62.3975 24.0811C62.4854 24.0928 62.5645 24.0986 62.6348 24.0986C62.9746 24.0986 63.2734 24.0488 63.5312 23.9492C63.7891 23.8496 64.0205 23.6533 64.2256 23.3604C64.4307 23.0674 64.624 22.6338 64.8057 22.0596L64.9111 21.7168L61.6328 14.0088H63.6455L65.9131 19.7129L68.1543 14.0088H70.0879L66.6689 22.4375C66.3584 23.2109 66.0332 23.8438 65.6934 24.3359C65.3535 24.8281 64.958 25.1914 64.5068 25.4258C64.0557 25.6602 63.5078 25.7803 62.8633 25.7861Z" fill="white"/>
<path d="M97.5 21.4538C97.5 21.6029 97.4407 21.746 97.3352 21.8515C97.2298 21.957 97.0867 22.0163 96.9375 22.0163H93.1125C92.9872 22.4834 92.7113 22.8962 92.3276 23.1906C91.9438 23.485 91.4737 23.6445 90.99 23.6445C90.5063 23.6445 90.0362 23.485 89.6524 23.1906C89.2687 22.8962 88.9928 22.4834 88.8675 22.0163H83.0625C82.9133 22.0163 82.7702 21.957 82.6648 21.8515C82.5593 21.746 82.5 21.6029 82.5 21.4538C82.5 21.3046 82.5593 21.1615 82.6648 21.056C82.7702 20.9505 82.9133 20.8913 83.0625 20.8913H88.8675C88.9928 20.4241 89.2687 20.0113 89.6524 19.7169C90.0362 19.4225 90.5063 19.263 90.99 19.263C91.4737 19.263 91.9438 19.4225 92.3276 19.7169C92.7113 20.0113 92.9872 20.4241 93.1125 20.8913H96.9375C97.0867 20.8913 97.2298 20.9505 97.3352 21.056C97.4407 21.1615 97.5 21.3046 97.5 21.4538ZM97.5 11.5463C97.5 11.6954 97.4407 11.8385 97.3352 11.944C97.2298 12.0495 97.0867 12.1088 96.9375 12.1088H95.1C94.9747 12.5759 94.6988 12.9887 94.3151 13.2831C93.9313 13.5775 93.4612 13.737 92.9775 13.737C92.4938 13.737 92.0237 13.5775 91.6399 13.2831C91.2562 12.9887 90.9803 12.5759 90.855 12.1088H83.0625C82.9886 12.1088 82.9155 12.0942 82.8472 12.0659C82.779 12.0377 82.717 11.9962 82.6648 11.944C82.6125 11.8918 82.5711 11.8298 82.5428 11.7615C82.5145 11.6933 82.5 11.6201 82.5 11.5463C82.5 11.4724 82.5145 11.3992 82.5428 11.331C82.5711 11.2628 82.6125 11.2007 82.6648 11.1485C82.717 11.0963 82.779 11.0548 82.8472 11.0266C82.9155 10.9983 82.9886 10.9838 83.0625 10.9838H90.855C90.9803 10.5166 91.2562 10.1038 91.6399 9.80943C92.0237 9.51504 92.4938 9.35547 92.9775 9.35547C93.4612 9.35547 93.9313 9.51504 94.3151 9.80943C94.6988 10.1038 94.9747 10.5166 95.1 10.9838H96.9375C97.0116 10.9827 97.0852 10.9966 97.1539 11.0245C97.2226 11.0524 97.2851 11.0938 97.3375 11.1463C97.3899 11.1987 97.4313 11.2611 97.4592 11.3298C97.4871 11.3985 97.501 11.4721 97.5 11.5463ZM97.5 16.4963C97.501 16.5704 97.4871 16.644 97.4592 16.7127C97.4313 16.7814 97.3899 16.8438 97.3375 16.8963C97.2851 16.9487 97.2226 16.9901 97.1539 17.018C97.0852 17.0459 97.0116 17.0598 96.9375 17.0588H88.1625C88.0372 17.5259 87.7613 17.9387 87.3776 18.2331C86.9938 18.5275 86.5237 18.687 86.04 18.687C85.5563 18.687 85.0862 18.5275 84.7024 18.2331C84.3187 17.9387 84.0428 17.5259 83.9175 17.0588H83.0625C82.9133 17.0588 82.7702 16.9995 82.6648 16.894C82.5593 16.7885 82.5 16.6454 82.5 16.4963C82.5 16.3471 82.5593 16.204 82.6648 16.0985C82.7702 15.993 82.9133 15.9338 83.0625 15.9338H83.9175C84.0428 15.4666 84.3187 15.0538 84.7024 14.7594C85.0862 14.465 85.5563 14.3055 86.04 14.3055C86.5237 14.3055 86.9938 14.465 87.3776 14.7594C87.7613 15.0538 88.0372 15.4666 88.1625 15.9338H96.9375C97.0867 15.9338 97.2298 15.993 97.3352 16.0985C97.4407 16.204 97.5 16.3471 97.5 16.4963Z" fill="#CDCDCD"/>
</svg>
