<svg width="30" height="30" viewBox="0 0 30 30" fill="none" xmlns="http://www.w3.org/2000/svg">
<path d="M7.26582 12.9346C7.39277 12.9346 7.53437 12.9542 7.69061 12.9932C7.84686 13.0323 8.00311 13.086 8.15935 13.1543C8.3156 13.2227 8.47184 13.2862 8.62809 13.3448C8.78434 13.4034 8.92593 13.462 9.05288 13.5205L8.81851 13.5498C8.74039 13.5596 8.65738 13.5645 8.5695 13.5645C8.40349 13.5645 8.25212 13.5401 8.11541 13.4912C7.97869 13.4424 7.85174 13.3789 7.73456 13.3008C7.61737 13.2227 7.50019 13.1641 7.383 13.125C7.26582 13.086 7.1584 13.0567 7.06075 13.0372C6.96309 13.0372 6.8752 13.0567 6.79708 13.0958C6.71896 13.1348 6.64083 13.1788 6.56271 13.2276C6.56271 13.1885 6.52853 13.169 6.46017 13.169C6.52853 13.1006 6.65548 13.0469 6.84102 13.0079C7.02657 12.9688 7.16816 12.9444 7.26582 12.9346ZM9.24331 13.5938C9.64369 13.5938 10.0099 13.6621 10.3419 13.7989C10.2052 13.8477 10.0685 13.8867 9.93177 13.916C9.79505 13.9453 9.65345 13.9649 9.50697 13.9746C9.31167 13.9746 9.13589 13.9551 8.97964 13.916C9.02847 13.8379 9.0773 13.7891 9.12612 13.7696C9.17495 13.75 9.21401 13.6914 9.24331 13.5938ZM15 0.000375592C16.3769 0.000375592 17.7001 0.181035 18.9696 0.542354C20.2391 0.903673 21.4305 1.40659 22.5438 2.05111C23.657 2.69562 24.6726 3.48173 25.5906 4.40944C26.5085 5.33716 27.2897 6.34787 27.9342 7.4416C28.5788 8.53532 29.0866 9.72669 29.4576 11.0157C29.8287 12.3048 30.0094 13.6328 29.9996 15C29.9996 16.3769 29.819 17.7001 29.4576 18.9696C29.0963 20.2391 28.5934 21.4305 27.9489 22.5438C27.3044 23.657 26.5183 24.6726 25.5906 25.5906C24.6628 26.5085 23.6521 27.2897 22.5584 27.9342C21.4647 28.5788 20.2733 29.0866 18.9843 29.4576C17.6952 29.8287 16.3672 30.0094 15 29.9996C13.6231 29.9996 12.2999 29.819 11.0304 29.4576C9.76087 29.0963 8.5695 28.5934 7.45624 27.9489C6.34299 27.3044 5.32739 26.5183 4.40944 25.5906C3.4915 24.6628 2.71027 23.6521 2.06575 22.5584C1.42124 21.4647 0.913439 20.2733 0.542354 18.9843C0.17127 17.6952 -0.00938979 16.3672 0.000375592 15C0.000375592 13.6231 0.181035 12.2999 0.542354 11.0304C0.903673 9.76087 1.40659 8.5695 2.05111 7.45624C2.69562 6.34299 3.48173 5.32739 4.40944 4.40944C5.33716 3.4915 6.34787 2.71027 7.4416 2.06575C8.53532 1.42124 9.72669 0.913439 11.0157 0.542354C12.3048 0.17127 13.6328 -0.00938979 15 0.000375592ZM26.1618 8.13005C26.0251 7.91522 25.8884 7.71014 25.7517 7.51484C25.615 7.31953 25.4734 7.11934 25.3269 6.91426C25.3074 7.00215 25.2829 7.06563 25.2536 7.10469C25.2244 7.14375 25.2048 7.23164 25.1951 7.36835C25.1951 7.45624 25.2292 7.53925 25.2976 7.61737C25.366 7.6955 25.4538 7.77362 25.5613 7.85174C25.6687 7.92986 25.7761 7.98846 25.8835 8.02752C25.9909 8.06658 26.0837 8.10076 26.1618 8.13005ZM25.1511 6.69454C25.1511 6.77267 25.1365 6.82638 25.1072 6.85567H25.1951C25.2341 6.85567 25.2634 6.86056 25.2829 6.87032L25.1511 6.69454ZM15 28.1247C16.1133 28.1247 17.2021 27.9831 18.2665 27.6999C19.3309 27.4167 20.3368 27.0163 21.284 26.4987C22.2313 25.9812 23.1101 25.3464 23.9207 24.5945C24.7312 23.8426 25.4392 23.0027 26.0446 22.075C25.9177 21.7821 25.7956 21.4842 25.6784 21.1815C25.5613 20.8788 25.5027 20.5663 25.5027 20.244C25.5027 19.8925 25.5173 19.6093 25.5466 19.3944C25.5759 19.1796 25.6101 18.9892 25.6491 18.8231C25.6882 18.6571 25.7077 18.5155 25.7077 18.3984C25.7077 18.2812 25.6931 18.1298 25.6638 17.9443C25.6345 17.7587 25.5515 17.5585 25.4148 17.3437C25.2781 17.1289 25.0974 16.8261 24.8728 16.4355C24.8826 16.3672 24.8972 16.2744 24.9167 16.1572C24.9363 16.04 24.9558 15.9179 24.9753 15.791C24.9949 15.664 24.9998 15.5469 24.99 15.4394C24.9802 15.332 24.9558 15.2393 24.9167 15.1611C24.6628 15.1318 24.3992 15.0781 24.1257 15C23.8523 14.9219 23.6082 14.8047 23.3933 14.6484L23.4812 14.5752C23.3543 14.6045 23.2273 14.6436 23.1004 14.6924C22.9734 14.7412 22.8514 14.7949 22.7342 14.8535C22.617 14.9121 22.49 14.9512 22.3533 14.9707C22.2166 14.9902 22.0848 15.0098 21.9578 15.0293L21.7235 15L21.7674 14.8975C21.6307 14.9365 21.4842 14.9854 21.328 15.0439C21.1717 15.1025 21.0204 15.1318 20.8739 15.1318C20.7762 15.1318 20.6346 15.0977 20.4491 15.0293C20.2635 14.9609 20.078 14.8779 19.8925 14.7803C19.7069 14.6826 19.5409 14.5752 19.3944 14.458C19.2479 14.3408 19.1747 14.2285 19.1747 14.1211L19.204 14.0772C19.1552 14.0186 19.0917 13.9649 19.0136 13.916C18.9354 13.8672 18.8622 13.8184 18.7938 13.7696C18.7255 13.7207 18.662 13.667 18.6034 13.6084C18.5448 13.5498 18.5204 13.4815 18.5302 13.4034L18.6913 13.2715L18.3544 13.2276L18.2372 12.7881C18.2568 12.837 18.3007 12.8565 18.3691 12.8467C18.4374 12.837 18.4911 12.8174 18.5302 12.7881L18.0029 12.5098L18.3691 11.5724C18.2323 11.0646 18.1982 10.6739 18.2665 10.4005C18.3349 10.1271 18.4667 9.90247 18.662 9.72669C18.8573 9.55092 19.0722 9.37514 19.3065 9.19936C19.5409 9.02359 19.7802 8.78434 20.0243 8.48161L19.9803 8.30583L20.9471 7.13399L21.1668 7.10469C21.4403 7.10469 21.7479 7.09492 22.0897 7.07539C22.4315 7.05586 22.7781 7.02168 23.1297 6.97286C23.4812 6.92403 23.8279 6.8752 24.1697 6.82638C24.5115 6.77755 24.824 6.71407 25.1072 6.63595C24.7947 6.26487 24.4675 5.91331 24.1257 5.58129C23.784 5.24927 23.4178 4.93189 23.0271 4.62917C22.9197 4.66823 22.7879 4.72194 22.6316 4.79029C22.4754 4.85865 22.3192 4.94654 22.1629 5.05396C22.0067 5.16138 21.8846 5.27856 21.7967 5.40551C21.7088 5.53246 21.6551 5.6643 21.6356 5.80101L21.7235 6.07932C21.5477 6.36252 21.3524 6.5383 21.1375 6.60666C20.9227 6.67501 20.703 6.71407 20.4784 6.72384C20.2538 6.73361 20.0194 6.73361 19.7753 6.72384C19.5311 6.71407 19.2968 6.75802 19.0722 6.85567L18.8378 6.35764L19.0575 5.50805L18.8085 5.14185L21.3426 4.35085C21.2352 4.07742 21.0594 3.87235 20.8153 3.73563C20.5711 3.59892 20.3026 3.53056 20.0096 3.53056V3.38408L20.8299 3.25225C19.9218 2.80304 18.9794 2.46125 18.0029 2.22688C17.0263 1.99251 16.0254 1.87533 15 1.87533C14.1504 1.87533 13.3106 1.95833 12.4805 2.12435C11.6505 2.29036 10.8497 2.52961 10.0782 2.8421C9.30678 3.15459 8.55973 3.54521 7.83709 4.01395C7.11446 4.48269 6.45529 5.01002 5.8596 5.59594C6.1135 5.59594 6.30881 5.65941 6.44553 5.78636C6.58224 5.91331 6.70919 6.05491 6.82638 6.21116C6.94356 6.3674 7.06563 6.509 7.19258 6.63595C7.31953 6.7629 7.49042 6.83126 7.70526 6.84102L7.93963 6.66525L7.91033 6.34299L8.39372 5.65453L8.01287 4.57057C8.0617 4.54128 8.13494 4.49245 8.23259 4.42409C8.33025 4.35574 8.41325 4.32156 8.48161 4.32156C8.77457 4.32156 8.99917 4.3362 9.15542 4.3655C9.31167 4.3948 9.44838 4.44851 9.56557 4.52663C9.68275 4.60475 9.78529 4.71705 9.87317 4.86353C9.96106 5.01002 10.0978 5.19556 10.2833 5.42016L10.8107 5.01002C10.9083 5.04908 11.0646 5.11255 11.2794 5.20044C11.4942 5.28833 11.7139 5.39575 11.9386 5.5227C12.1632 5.64965 12.3536 5.78148 12.5098 5.9182C12.6661 6.05491 12.7491 6.18186 12.7588 6.29905C12.7588 6.44553 12.7051 6.56271 12.5977 6.6506C12.4903 6.73849 12.3487 6.81173 12.1729 6.87032C11.9971 6.92891 11.8165 6.97286 11.6309 7.00215C11.4454 7.03145 11.2599 7.07051 11.0743 7.11934C10.8888 7.16816 10.7472 7.21699 10.6495 7.26582C10.5519 7.31465 10.4933 7.39765 10.4737 7.51484L11.3233 7.79315C11.128 7.95916 10.9181 8.11052 10.6935 8.24724C10.4689 8.38396 10.2345 8.5109 9.99036 8.62809L10.049 8.87711L8.70133 9.40444V9.81458L8.59879 9.85853L8.67203 9.34584L8.61344 9.3312C8.54508 9.3312 8.50602 9.34584 8.49626 9.37514C8.48649 9.40444 8.48161 9.43862 8.48161 9.47768C8.48161 9.51674 8.49137 9.5558 8.5109 9.59486C8.53044 9.63392 8.53532 9.66322 8.52555 9.68275L8.33513 9.58021L8.36442 9.63881C8.36442 9.6681 8.37907 9.71205 8.40837 9.77064C8.43766 9.82923 8.47673 9.88294 8.52555 9.93177C8.57438 9.98059 8.61344 10.0294 8.64274 10.0782C8.67203 10.1271 8.69156 10.1515 8.70133 10.1515C8.70133 10.1808 8.6818 10.2101 8.64274 10.2394C8.60368 10.2687 8.55485 10.2882 8.49626 10.298C8.43766 10.3077 8.3986 10.3224 8.37907 10.3419C8.35954 10.3614 8.35954 10.3663 8.37907 10.3566C8.51579 10.3566 8.54508 10.3663 8.46696 10.3859C8.38884 10.4054 8.26677 10.4542 8.10076 10.5323C7.93475 10.6105 7.78338 10.7228 7.64667 10.8692C7.50995 11.0157 7.43183 11.2306 7.4123 11.5138C7.4123 11.6798 7.41718 11.8409 7.42695 11.9971C7.43671 12.1534 7.43183 12.3145 7.4123 12.4805C7.27558 12.1094 7.07051 11.8263 6.79708 11.6309C6.52365 11.4356 6.19163 11.338 5.80101 11.338L5.17114 11.3966L5.47875 11.6016C5.31274 11.5821 5.14185 11.5626 4.96607 11.5431C4.79029 11.5235 4.60963 11.5186 4.42409 11.5284C4.23855 11.5382 4.07254 11.5772 3.92606 11.6456C3.77958 11.7139 3.6331 11.8165 3.48662 11.9532L3.39873 12.6124C3.39873 12.9249 3.46709 13.1788 3.6038 13.3741C3.74052 13.5694 3.97977 13.6719 4.32156 13.6817C4.61452 13.6817 4.9026 13.6377 5.18579 13.5498C5.46899 13.462 5.7473 13.3594 6.02073 13.2422C5.93284 13.4571 5.83519 13.6621 5.72777 13.8575C5.62035 14.0528 5.54223 14.2676 5.4934 14.502L5.68383 14.5899C5.9182 14.4336 6.13303 14.4092 6.32834 14.5166C6.52365 14.624 6.71407 14.7803 6.89962 14.9854C7.08516 15.1904 7.27558 15.4004 7.47089 15.6152C7.6662 15.8301 7.87615 15.9863 8.10076 16.084L7.60272 16.3476L6.43088 15.6885C6.44064 15.708 6.45041 15.7519 6.46017 15.8203C6.46994 15.8886 6.46506 15.9033 6.44553 15.8642L5.9182 14.9707C5.6057 14.9609 5.27368 14.9121 4.92213 14.8242C4.57057 14.7363 4.21414 14.6192 3.85282 14.4727C3.4915 14.3262 3.15459 14.1651 2.8421 13.9893C2.52961 13.8135 2.24153 13.628 1.97786 13.4327L1.87533 15C1.87533 16.1914 2.03646 17.3535 2.35871 18.4862C2.68097 19.619 3.13506 20.6835 3.72099 21.6795C4.30691 22.6756 5.02466 23.5838 5.87425 24.4041C6.72384 25.2244 7.6662 25.9226 8.70133 26.4987C8.6525 26.2937 8.64762 26.0886 8.68668 25.8835C8.72574 25.6784 8.77457 25.4734 8.83316 25.2683C8.89175 25.0632 8.95523 24.8582 9.02359 24.6531C9.09194 24.448 9.12612 24.2381 9.12612 24.0232C9.12612 23.7107 9.0773 23.3836 8.97964 23.0418C8.88199 22.7 8.7648 22.3533 8.62809 22.0018C8.49137 21.6502 8.34001 21.3036 8.174 20.9618C8.00799 20.62 7.87615 20.2977 7.7785 19.995C7.68085 19.6923 7.60272 19.4091 7.54413 19.1454C7.48554 18.8817 7.51484 18.6523 7.63202 18.4569L7.4123 18.3544C7.47089 18.2177 7.54901 18.0859 7.64667 17.9589C7.74432 17.832 7.84686 17.705 7.95428 17.5781C8.0617 17.4511 8.1447 17.3144 8.20329 17.1679C8.26189 17.0214 8.29607 16.875 8.30583 16.7285C8.30583 16.6308 8.2863 16.5283 8.24724 16.4209C8.20818 16.3134 8.174 16.2109 8.1447 16.1133L8.45231 16.1865C8.61832 15.8056 8.84293 15.5469 9.12612 15.4101C9.40932 15.2734 9.76576 15.2002 10.1954 15.1904C10.2443 15.1904 10.3468 15.21 10.503 15.249C10.6593 15.2881 10.8253 15.3418 11.0011 15.4101C11.1769 15.4785 11.3429 15.5322 11.4991 15.5713C11.6554 15.6103 11.7725 15.6494 11.8507 15.6885C11.8507 15.7568 11.8897 15.8008 11.9678 15.8203C12.046 15.8398 12.0899 15.874 12.0997 15.9228L12.0704 16.04C12.0997 16.0498 12.168 16.084 12.2755 16.1425C12.3829 16.2011 12.5001 16.2744 12.627 16.3623C12.754 16.4502 12.8663 16.5283 12.9639 16.5966C13.0616 16.665 13.1299 16.7187 13.169 16.7578C13.3448 16.7578 13.584 16.8164 13.8867 16.9335C14.1895 17.0507 14.5215 17.1972 14.8828 17.373C15.2441 17.5488 15.6006 17.7587 15.9521 18.0029C16.3037 18.247 16.6357 18.4911 16.9482 18.7353C17.2607 18.9794 17.4999 19.2235 17.6659 19.4677C17.832 19.7118 17.9296 19.9266 17.9589 20.1122L17.4609 20.6395C17.4999 21.1375 17.4658 21.5184 17.3583 21.7821C17.2509 22.0457 17.0849 22.2654 16.8603 22.4412C16.6357 22.617 16.3769 22.7635 16.084 22.8807C15.791 22.9978 15.4736 23.1639 15.1318 23.3787C15.1318 23.574 15.083 23.784 14.9854 24.0086C14.8877 24.2332 14.7656 24.448 14.6192 24.6531C14.4727 24.8582 14.2969 25.029 14.0918 25.1658C13.8867 25.3025 13.6817 25.3708 13.4766 25.3708L12.8614 24.9021C12.8809 24.9216 12.8809 24.9558 12.8614 25.0046C12.8419 25.0535 12.8174 25.0632 12.7881 25.0339C12.8858 25.2195 12.9102 25.4343 12.8614 25.6784C12.8126 25.9226 12.7295 26.1716 12.6124 26.4255C12.4952 26.6794 12.3633 26.9186 12.2169 27.1432C12.0704 27.3679 11.9386 27.5583 11.8214 27.7145C12.3487 27.8512 12.876 27.9538 13.4034 28.0221C13.9307 28.0905 14.4629 28.1247 15 28.1247Z" fill="white"/>
</svg>
