<svg width="124" height="52" viewBox="0 0 124 52" fill="none" xmlns="http://www.w3.org/2000/svg">
<path d="M14.0695 38.3812C12.2675 38.3812 10.5926 38.0693 9.0447 37.4455C7.49682 36.7987 6.13376 35.9092 4.95552 34.7772C3.80039 33.622 2.88783 32.2936 2.21786 30.792C1.57098 29.2672 1.24754 27.6269 1.24754 25.8711C1.24754 24.1153 1.57098 22.4866 2.21786 20.9849C2.88783 19.4601 3.80039 18.1317 4.95552 16.9997C6.13376 15.8445 7.49682 14.9551 9.0447 14.3313C10.5926 13.6844 12.2675 13.361 14.0695 13.361C15.8715 13.361 17.5465 13.6844 19.0944 14.3313C20.6653 14.9551 22.0284 15.8445 23.1835 16.9997C24.3618 18.1317 25.2743 19.4601 25.9212 20.9849C26.5681 22.4866 26.8915 24.1153 26.8915 25.8711C26.8915 27.6269 26.5681 29.2672 25.9212 30.792C25.2743 32.2936 24.3618 33.622 23.1835 34.7772C22.0284 35.9092 20.6653 36.7987 19.0944 37.4455C17.5465 38.0693 15.8715 38.3812 14.0695 38.3812ZM14.0695 33.7722C15.1785 33.7722 16.195 33.5758 17.1191 33.1831C18.0432 32.7672 18.8518 32.2128 19.5449 31.5197C20.2379 30.8035 20.7809 29.9603 21.1736 28.99C21.5663 28.0196 21.7627 26.98 21.7627 25.8711C21.7627 24.7391 21.5663 23.6994 21.1736 22.7522C20.7809 21.7819 20.2379 20.9502 19.5449 20.2571C18.8518 19.541 18.0432 18.9865 17.1191 18.5938C16.195 18.1779 15.1785 17.97 14.0695 17.97C12.9837 17.97 11.9787 18.1779 11.0546 18.5938C10.1305 18.9865 9.32193 19.541 8.62885 20.2571C7.93577 20.9502 7.39286 21.7819 7.00011 22.7522C6.60737 23.6994 6.41099 24.7275 6.41099 25.8364C6.41099 26.9685 6.60737 28.0196 7.00011 28.99C7.39286 29.9603 7.93577 30.8035 8.62885 31.5197C9.32193 32.2128 10.1305 32.7672 11.0546 33.1831C11.9787 33.5758 12.9837 33.7722 14.0695 33.7722ZM32.4873 38V23.8958H28.4675V19.9453H32.4873V18.2126C32.4873 16.1795 33.0764 14.6316 34.2547 13.5689C35.4329 12.4831 37.131 11.9402 39.3488 11.9402C39.834 11.9402 40.3307 11.9633 40.8389 12.0095C41.3472 12.0557 41.7862 12.1366 42.1558 12.2521V16.2373C41.7168 16.1449 41.3357 16.0756 41.0122 16.0294C40.6888 15.9831 40.3307 15.96 39.9379 15.96C39.0369 15.96 38.3554 16.1564 37.8934 16.5492C37.4544 16.9188 37.2349 17.5079 37.2349 18.3165V19.9453H42.1558V23.8958H37.2349V38H32.4873ZM52.385 38.3465C50.583 38.3465 48.9427 37.9307 47.4641 37.099C46.0086 36.2673 44.8535 35.1468 43.9987 33.7376C43.1439 32.3283 42.7165 30.7458 42.7165 28.99C42.7165 27.2342 43.1208 25.6516 43.9294 24.2424C44.7611 22.8331 45.8816 21.7126 47.2908 20.8809C48.7001 20.0492 50.2711 19.6334 52.0038 19.6334C53.7365 19.6334 55.2728 20.0608 56.6127 20.9156C57.9527 21.7704 59.0039 22.9255 59.7663 24.381C60.5518 25.8364 60.9445 27.4883 60.9445 29.3365V30.584H47.5681C47.776 31.3002 48.111 31.9471 48.573 32.5247C49.0582 33.1022 49.6473 33.5527 50.3404 33.8762C51.0566 34.1996 51.8189 34.3613 52.6275 34.3613C53.4361 34.3613 54.1754 34.2343 54.8454 33.9801C55.5385 33.726 56.1276 33.3679 56.6127 32.9059L59.7316 35.7475C58.6227 36.6485 57.4791 37.3069 56.3009 37.7228C55.1457 38.1386 53.8404 38.3465 52.385 38.3465ZM47.4987 27.1879H56.2662C56.1045 26.4718 55.8042 25.848 55.3652 25.3166C54.9494 24.7622 54.4411 24.3348 53.8404 24.0344C53.2629 23.711 52.616 23.5493 51.8998 23.5493C51.1605 23.5493 50.4905 23.6994 49.8899 23.9998C49.2892 24.3001 48.7809 24.7275 48.3651 25.282C47.9723 25.8133 47.6836 26.4487 47.4987 27.1879ZM63.5067 38V19.9453H68.2543V21.4354C69.6174 20.2109 71.3039 19.5987 73.3138 19.5987C74.7231 19.5987 75.9591 19.9106 77.0218 20.5344C78.1076 21.135 78.9509 21.9783 79.5515 23.0641C80.1522 24.1268 80.4525 25.3744 80.4525 26.8068V38H75.7049V27.4998C75.7049 26.3216 75.37 25.3975 74.7 24.7275C74.03 24.0344 73.1174 23.6879 71.9623 23.6879C71.1537 23.6879 70.4375 23.8496 69.8138 24.173C69.19 24.4734 68.6702 24.9123 68.2543 25.4899V38H63.5067Z" fill="#A052C6"/>
<path d="M90.5331 38.3465C89.1469 38.3465 87.9109 38.0462 86.8251 37.4455C85.7624 36.8218 84.9191 35.967 84.2953 34.8811C83.6947 33.7953 83.3943 32.5478 83.3943 31.1385V19.9453H88.1419V30.4454C88.1419 31.6006 88.4769 32.5247 89.1469 33.2177C89.84 33.9108 90.7641 34.2574 91.9192 34.2574C92.7047 34.2574 93.4094 34.1072 94.0331 33.8069C94.68 33.4834 95.2114 33.0329 95.6272 32.4554V19.9453H100.375V38H95.6272V36.5445C94.2411 37.7459 92.543 38.3465 90.5331 38.3465ZM103.728 45.0694V19.9453H108.407V21.4354C109.885 20.2802 111.595 19.7027 113.535 19.7027C115.245 19.7027 116.793 20.1185 118.179 20.9502C119.565 21.7819 120.663 22.9024 121.471 24.3117C122.303 25.6978 122.719 27.2573 122.719 28.99C122.719 30.7227 122.303 32.2936 121.471 33.7029C120.64 35.0891 119.519 36.198 118.11 37.0297C116.701 37.8383 115.13 38.2426 113.397 38.2426C112.496 38.2426 111.63 38.1271 110.798 37.896C109.966 37.6419 109.192 37.2838 108.476 36.8218V45.0694H103.728ZM112.773 34.2227C113.767 34.2227 114.656 33.9917 115.441 33.5296C116.25 33.0676 116.885 32.4438 117.347 31.6583C117.809 30.8728 118.041 29.9834 118.041 28.99C118.041 27.9965 117.809 27.1071 117.347 26.3216C116.885 25.513 116.25 24.8892 115.441 24.4503C114.656 23.9882 113.767 23.7572 112.773 23.7572C111.895 23.7572 111.087 23.9074 110.347 24.2077C109.631 24.4849 109.007 24.9123 108.476 25.4899V32.5247C108.984 33.056 109.608 33.4719 110.347 33.7722C111.11 34.0725 111.918 34.2227 112.773 34.2227Z" fill="#FF8E8A"/>
</svg>
