<svg width="18" height="21" viewBox="0 0 18 21" fill="none" xmlns="http://www.w3.org/2000/svg">
<path d="M2.11569 10.3902C2.04412 11.7832 2.12647 13.2659 0.903924 14.1989C0.62285 14.4129 0.394767 14.6908 0.237838 15.0104C0.0809086 15.33 -0.00053156 15.6825 2.61085e-06 16.0398C2.61085e-06 17.0346 0.766669 17.8828 1.76471 17.8828H15.8824C16.8804 17.8828 17.6471 17.0346 17.6471 16.0398C17.6471 15.3154 17.3118 14.6329 16.7431 14.1989C15.5206 13.2659 15.6029 11.7832 15.5314 10.3902C15.4431 8.64014 14.6979 6.99138 13.4496 5.78442C12.2014 4.57747 10.5453 3.9045 8.82353 3.9045C7.10174 3.9045 5.4457 4.57747 4.19741 5.78442C2.94912 6.99138 2.20391 8.64014 2.11569 10.3902Z" fill="white"/>
<path d="M7.35291 2.04258C7.35291 2.86877 8.01174 3.91347 8.8235 3.91347C9.63526 3.91347 10.2941 2.86877 10.2941 2.04258C10.2941 1.21639 9.63526 0.920044 8.8235 0.920044C8.01174 0.920044 7.35291 1.21639 7.35291 2.04258ZM11.7647 17.8828C11.7647 18.6767 11.4548 19.4381 10.9032 19.9995C10.3516 20.5609 9.60355 20.8762 8.8235 20.8762C8.04345 20.8762 7.29535 20.5609 6.74377 19.9995C6.1922 19.4381 5.88232 18.6767 5.88232 17.8828" fill="white"/>
</svg>
