<svg width="82" height="28" viewBox="0 0 82 28" fill="none" xmlns="http://www.w3.org/2000/svg">
<rect width="82" height="28" rx="5" fill="#383838"/>
<path opacity="0.75" d="M12.4951 19.1709C11.9118 19.1709 11.3945 19.1117 10.9434 18.9932C10.4967 18.8747 10.1117 18.6992 9.78809 18.4668C9.46908 18.2344 9.21159 17.9495 9.01562 17.6123C8.81966 17.2751 8.68066 16.8877 8.59863 16.4502L9.93164 15.8691C10.0957 16.375 10.2871 16.776 10.5059 17.0723C10.7292 17.3685 11.0094 17.5804 11.3467 17.708C11.6885 17.8356 12.1169 17.8994 12.6318 17.8994C13.0921 17.8994 13.4681 17.8402 13.7598 17.7217C14.0514 17.5986 14.2656 17.4232 14.4023 17.1953C14.5436 16.9629 14.612 16.6849 14.6074 16.3613C14.6029 15.9421 14.5322 15.6185 14.3955 15.3906C14.2588 15.1628 14.015 14.9691 13.6641 14.8096C13.3177 14.6501 12.821 14.4655 12.1738 14.2559C11.5312 14.0462 10.9684 13.8366 10.4854 13.627C10.0023 13.4173 9.6263 13.137 9.35742 12.7861C9.08854 12.4307 8.9541 11.9385 8.9541 11.3096C8.9541 10.7627 9.08171 10.3047 9.33691 9.93555C9.59668 9.56185 9.98861 9.28158 10.5127 9.09473C11.0413 8.90332 11.709 8.80762 12.5156 8.80762C13.0807 8.80762 13.5615 8.8623 13.958 8.97168C14.359 9.08105 14.7145 9.26107 15.0244 9.51172C15.3343 9.75781 15.6328 10.0951 15.9199 10.5234L14.833 11.3643C14.5413 10.8903 14.2337 10.5553 13.9102 10.3594C13.5866 10.1634 13.181 10.0654 12.6934 10.0654C12.2194 10.0654 11.8275 10.111 11.5176 10.2021C11.2077 10.2887 10.9753 10.4186 10.8203 10.5918C10.6699 10.7604 10.5947 10.9678 10.5947 11.2139C10.5947 11.501 10.6426 11.7311 10.7383 11.9043C10.8385 12.0729 10.9958 12.2119 11.21 12.3213C11.4242 12.4307 11.6999 12.5378 12.0371 12.6426C12.3789 12.7474 12.7913 12.8796 13.2744 13.0391C13.8851 13.2396 14.4115 13.4674 14.8535 13.7227C15.3001 13.9779 15.6442 14.3105 15.8857 14.7207C16.1273 15.1263 16.248 15.6572 16.248 16.3135C16.248 16.9424 16.109 17.4688 15.8311 17.8926C15.5531 18.3164 15.1361 18.6354 14.5801 18.8496C14.0241 19.0638 13.3291 19.1709 12.4951 19.1709ZM20.4932 19.1641C19.7549 19.1641 19.151 19 18.6816 18.6719C18.2122 18.3438 17.8659 17.9017 17.6426 17.3457C17.4193 16.7897 17.3076 16.1745 17.3076 15.5C17.3076 14.7389 17.4307 14.085 17.6768 13.5381C17.9229 12.9912 18.2783 12.5719 18.7432 12.2803C19.2126 11.9886 19.7777 11.8428 20.4385 11.8428C21.0902 11.8428 21.6257 11.9863 22.0449 12.2734C22.4688 12.556 22.7832 12.9434 22.9883 13.4355C23.1979 13.9277 23.3027 14.486 23.3027 15.1104C23.3027 15.1286 23.3005 15.1901 23.2959 15.2949C23.2959 15.3997 23.2936 15.5068 23.2891 15.6162C23.2891 15.721 23.2868 15.7939 23.2822 15.835H18.832C18.8411 16.1859 18.8958 16.5345 18.9961 16.8809C19.1009 17.2272 19.2718 17.5143 19.5088 17.7422C19.7458 17.9701 20.0671 18.084 20.4727 18.084C20.9466 18.084 21.2975 17.9609 21.5254 17.7148C21.7533 17.4642 21.9264 17.1794 22.0449 16.8604L23.1865 17.1133C23.0817 17.5189 22.904 17.8766 22.6533 18.1865C22.4072 18.4919 22.1019 18.7311 21.7373 18.9043C21.3727 19.0775 20.958 19.1641 20.4932 19.1641ZM18.832 14.8369H21.874C21.8786 14.2035 21.7692 13.7272 21.5459 13.4082C21.3226 13.0846 20.9421 12.9229 20.4043 12.9229C20.099 12.9229 19.8438 12.9889 19.6387 13.1211C19.4382 13.2487 19.2786 13.415 19.1602 13.6201C19.0462 13.8206 18.9642 14.0303 18.9141 14.249C18.8639 14.4632 18.8366 14.6592 18.832 14.8369ZM26.4336 19.1641C26.0143 19.1641 25.6361 19.0934 25.2988 18.9521C24.9661 18.8109 24.7041 18.6035 24.5127 18.3301C24.3213 18.0521 24.2256 17.7126 24.2256 17.3115C24.2256 16.874 24.3122 16.5208 24.4854 16.252C24.6585 15.9831 24.8978 15.7734 25.2031 15.623C25.513 15.4681 25.873 15.3473 26.2832 15.2607C26.6934 15.1696 27.1354 15.0876 27.6094 15.0146L28.4365 14.8779V14.6182C28.4365 14.2262 28.4069 13.9072 28.3477 13.6611C28.2884 13.4105 28.1654 13.2259 27.9785 13.1074C27.7917 12.9844 27.5046 12.9229 27.1172 12.9229C26.6159 12.9229 26.2126 12.9889 25.9072 13.1211C25.6064 13.2533 25.3102 13.415 25.0186 13.6064C25.0186 13.6064 24.9889 13.5609 24.9297 13.4697C24.8704 13.3786 24.7998 13.2738 24.7178 13.1553C24.6403 13.0368 24.5719 12.932 24.5127 12.8408C24.4535 12.7497 24.4238 12.7041 24.4238 12.7041C24.8158 12.4215 25.2191 12.2074 25.6338 12.0615C26.0485 11.9157 26.5612 11.8428 27.1719 11.8428C28.0059 11.8428 28.6781 12.0433 29.1885 12.4443C29.6989 12.8408 29.9541 13.4743 29.9541 14.3447V19H28.6484L28.5254 18.1934C28.2975 18.5124 28.0013 18.7539 27.6367 18.918C27.2767 19.082 26.8757 19.1641 26.4336 19.1641ZM26.625 18.0908C27.0397 18.0908 27.3861 18.002 27.6641 17.8242C27.9466 17.6465 28.2041 17.4277 28.4365 17.168V15.8281L27.5205 16.0059C27.0192 16.1061 26.6296 16.1995 26.3516 16.2861C26.0781 16.3727 25.889 16.4844 25.7842 16.6211C25.6794 16.7578 25.6315 16.9492 25.6406 17.1953C25.6497 17.4551 25.7181 17.6693 25.8457 17.8379C25.9733 18.0065 26.2331 18.0908 26.625 18.0908ZM31.4717 19V12.0068H32.9961V13.0527C33.2467 12.6517 33.5407 12.3623 33.8779 12.1846C34.2197 12.0068 34.6117 11.918 35.0537 11.918V13.2646C34.557 13.2646 34.1559 13.374 33.8506 13.5928C33.5498 13.807 33.3311 14.0941 33.1943 14.4541C33.0622 14.8096 32.9961 15.1992 32.9961 15.623V19H31.4717ZM38.793 19.1641C38.1185 19.1641 37.5488 19.0046 37.084 18.6855C36.6237 18.3665 36.2751 17.9313 36.0381 17.3799C35.8011 16.8285 35.6826 16.2041 35.6826 15.5068C35.6826 14.805 35.8011 14.1784 36.0381 13.627C36.2796 13.0755 36.6305 12.6403 37.0908 12.3213C37.5557 12.0023 38.1253 11.8428 38.7998 11.8428C39.2692 11.8428 39.6976 11.9111 40.085 12.0479C40.4723 12.18 40.8027 12.4079 41.0762 12.7314C41.3542 13.0505 41.557 13.4902 41.6846 14.0508L40.4268 14.3584C40.2992 13.8525 40.11 13.488 39.8594 13.2646C39.6133 13.0368 39.2783 12.9229 38.8545 12.9229C38.5264 12.9229 38.2415 13.0163 38 13.2031C37.7585 13.3854 37.5716 13.6657 37.4395 14.0439C37.3073 14.4222 37.2412 14.903 37.2412 15.4863C37.2412 16.0924 37.3073 16.5869 37.4395 16.9697C37.5762 17.3525 37.7653 17.6351 38.0068 17.8174C38.2484 17.9951 38.5309 18.084 38.8545 18.084C39.2874 18.084 39.6315 17.9678 39.8867 17.7354C40.1465 17.5029 40.3379 17.1201 40.4609 16.5869L41.6709 16.9561C41.5433 17.5303 41.3405 17.9792 41.0625 18.3027C40.7891 18.6217 40.4587 18.8451 40.0713 18.9727C39.6839 19.1003 39.2578 19.1641 38.793 19.1641ZM42.9287 19V8.92383H44.46V12.8682C44.6969 12.5446 44.9909 12.2962 45.3418 12.123C45.6927 11.9499 46.1165 11.8633 46.6133 11.8633C47.1647 11.8633 47.6068 11.9544 47.9395 12.1367C48.2721 12.319 48.5228 12.5605 48.6914 12.8613C48.8646 13.1621 48.9785 13.4925 49.0332 13.8525C49.0924 14.2126 49.1221 14.568 49.1221 14.9189V19H47.6045V14.8848C47.6045 14.2103 47.5042 13.7158 47.3037 13.4014C47.1077 13.0824 46.7637 12.9229 46.2715 12.9229C45.8294 12.9229 45.4785 13.0391 45.2188 13.2715C44.9635 13.4993 44.7767 13.7956 44.6582 14.1602C44.5443 14.5247 44.4782 14.9144 44.46 15.3291V19H42.9287Z" fill="white"/>
<path d="M70.1113 15.4766C70.6387 14.6469 70.948 13.6625 70.948 12.6043C70.948 9.64766 68.5539 7.25 65.6008 7.25C62.6441 7.25 60.25 9.64766 60.25 12.6043C60.25 15.5609 62.6441 17.9586 65.5973 17.9586C66.6695 17.9586 67.668 17.6422 68.5047 17.1008L68.7473 16.932L72.5652 20.75L73.75 19.5441L69.9355 15.7262L70.1113 15.4766ZM68.5961 9.6125C69.3941 10.4105 69.8336 11.4723 69.8336 12.6008C69.8336 13.7293 69.3941 14.791 68.5961 15.5891C67.798 16.3871 66.7363 16.8266 65.6078 16.8266C64.4793 16.8266 63.4176 16.3871 62.6195 15.5891C61.8215 14.791 61.382 13.7293 61.382 12.6008C61.382 11.4723 61.8215 10.4105 62.6195 9.6125C63.4176 8.81445 64.4793 8.375 65.6078 8.375C66.7363 8.375 67.798 8.81445 68.5961 9.6125Z" fill="#CDCDCD"/>
</svg>
