<svg width="16" height="18" viewBox="0 0 16 18" fill="none" xmlns="http://www.w3.org/2000/svg">
<path d="M7.77273 0L15.5455 4.5V13.5L7.77273 18L0 13.5V4.5L7.77273 0ZM7.77273 1.89082L1.63636 5.44336V12.5566L7.77273 16.1092L13.9091 12.5566V5.44336L7.77273 1.89082ZM7.77273 12.2727C6.90475 12.2727 6.07231 11.9279 5.45856 11.3142C4.8448 10.7004 4.5 9.86798 4.5 9C4.5 8.13202 4.8448 7.29959 5.45856 6.68583C6.07231 6.07208 6.90475 5.72727 7.77273 5.72727C8.64071 5.72727 9.47314 6.07208 10.0869 6.68583C10.7007 7.29959 11.0455 8.13202 11.0455 9C11.0455 9.86798 10.7007 10.7004 10.0869 11.3142C9.47314 11.9279 8.64071 12.2727 7.77273 12.2727ZM7.77273 10.6364C8.20672 10.6364 8.62293 10.464 8.92981 10.1571C9.23669 9.85021 9.40909 9.43399 9.40909 9C9.40909 8.56601 9.23669 8.14979 8.92981 7.84292C8.62293 7.53604 8.20672 7.36364 7.77273 7.36364C7.33874 7.36364 6.92252 7.53604 6.61564 7.84292C6.30877 8.14979 6.13636 8.56601 6.13636 9C6.13636 9.43399 6.30877 9.85021 6.61564 10.1571C6.92252 10.464 7.33874 10.6364 7.77273 10.6364Z" fill="white"/>
</svg>
