<svg width="25" height="24" viewBox="0 0 25 24" fill="none" xmlns="http://www.w3.org/2000/svg">
<path d="M22.056 17.4919C22.5788 16.435 22.8383 15.2674 22.8124 14.0885C22.7864 12.9097 22.4758 11.7546 21.907 10.7218C21.3382 9.68895 20.528 8.80897 19.5456 8.15689C18.5632 7.50481 17.4377 7.09997 16.265 6.97687C15.8926 6.06838 15.341 5.24419 14.6431 4.55347C13.9453 3.86275 13.1155 3.31965 12.2032 2.95655C11.2909 2.59345 10.3149 2.41779 9.33326 2.44004C8.35164 2.4623 7.38455 2.68202 6.48967 3.0861C5.5948 3.49017 4.79046 4.07033 4.12464 4.79197C3.45882 5.51361 2.94514 6.36195 2.61426 7.28639C2.28337 8.21083 2.14205 9.19245 2.19871 10.1727C2.25538 11.1529 2.50888 12.1117 2.94408 12.9919L2.2419 15.375C2.17418 15.6018 2.16906 15.8427 2.22708 16.0722C2.2851 16.3017 2.40409 16.5112 2.57146 16.6786C2.73884 16.8459 2.94836 16.9649 3.17784 17.0229C3.40732 17.081 3.64821 17.0758 3.87502 17.0081L6.2619 16.3059C7.03777 16.6889 7.87545 16.9311 8.73596 17.0212C9.11622 17.9504 9.68372 18.7912 10.4031 19.4914C11.1225 20.1917 11.9784 20.7363 12.9174 21.0913C13.8564 21.4464 14.8585 21.6043 15.8612 21.5552C16.8639 21.5061 17.8458 21.251 18.7456 20.8059L21.125 21.5081C21.3518 21.5758 21.5927 21.581 21.8222 21.5229C22.0517 21.4649 22.2612 21.3459 22.4286 21.1786C22.596 21.0112 22.7149 20.8017 22.773 20.5722C22.831 20.3427 22.8259 20.1018 22.7581 19.875L22.056 17.4919ZM6.31252 15.1406C6.25891 15.1405 6.20556 15.1481 6.15408 15.1631L3.55065 15.9291C3.51838 15.9385 3.48417 15.939 3.45161 15.9307C3.41905 15.9224 3.38933 15.9054 3.36556 15.8816C3.3418 15.8579 3.32486 15.8282 3.31651 15.7956C3.30817 15.763 3.30874 15.7288 3.31815 15.6966L4.08408 13.0931C4.12527 12.9512 4.10947 12.7989 4.04002 12.6684C3.34035 11.36 3.13418 9.84361 3.45911 8.39583C3.78403 6.94804 4.61841 5.66523 5.81014 4.78123C7.00186 3.89723 8.47158 3.47093 9.95136 3.58002C11.4311 3.68912 12.8225 4.32635 13.8717 5.37555C14.9209 6.42476 15.5581 7.81606 15.6672 9.29585C15.7763 10.7756 15.35 12.2453 14.466 13.4371C13.582 14.6288 12.2992 15.4632 10.8514 15.7881C9.40359 16.113 7.88725 15.9069 6.57877 15.2072C6.49688 15.1634 6.40541 15.1405 6.31252 15.1406ZM20.9103 17.5931L21.6763 20.1966C21.6857 20.2288 21.6862 20.263 21.6779 20.2956C21.6696 20.3282 21.6526 20.3579 21.6289 20.3816C21.6051 20.4054 21.5754 20.4224 21.5428 20.4307C21.5102 20.439 21.476 20.4385 21.4438 20.4291L18.8403 19.6631C18.6984 19.622 18.5461 19.6378 18.4156 19.7072C17.6888 20.0957 16.8916 20.3351 16.071 20.4114C15.2503 20.4876 14.4227 20.3991 13.6367 20.1511C12.8508 19.903 12.1223 19.5005 11.494 18.9671C10.8657 18.4336 10.3504 17.78 9.97815 17.0447C11.03 16.9762 12.0545 16.681 12.9814 16.1792C13.9084 15.6774 14.7157 14.981 15.3481 14.1377C15.9805 13.2944 16.4228 12.3243 16.6449 11.2939C16.8669 10.2635 16.8633 9.19731 16.6344 8.16843C17.5901 8.34714 18.4903 8.74857 19.2619 9.34017C20.0336 9.93176 20.6549 10.6969 21.0756 11.5735C21.4963 12.4501 21.7044 13.4135 21.6832 14.3856C21.662 15.3576 21.412 16.311 20.9535 17.1684C20.8853 17.2994 20.8708 17.4517 20.9131 17.5931H20.9103Z" fill="white"/>
</svg>
