<svg width="179" height="50" viewBox="0 0 179 50" fill="none" xmlns="http://www.w3.org/2000/svg">
<path d="M28.65 32.2C26.7167 32.2 24.9167 32 23.25 31.6C21.55 31.1667 20.0833 30.5 18.85 29.6C17.5833 28.6667 16.6 27.4667 15.9 26C15.2 24.5 14.85 22.6667 14.85 20.5C14.85 18.3667 15.2167 16.55 15.95 15.05C16.65 13.55 17.6167 12.35 18.85 11.45C20.0833 10.5167 21.55 9.85 23.25 9.45C24.9167 9.01666 26.7167 8.8 28.65 8.8H34.15C36.1167 8.8 37.95 9.01666 39.65 9.45C41.3167 9.85 42.7667 10.5167 44 11.45C45.2333 12.35 46.2167 13.55 46.95 15.05C47.65 16.55 48 18.3667 48 20.5C48 22.6667 47.65 24.5 46.95 26C46.2167 27.4667 45.2333 28.6667 44 29.6C42.7667 30.5333 41.3167 31.2 39.65 31.6C37.95 32 36.1167 32.2 34.15 32.2H28.65ZM34.15 29.4C35.65 29.4 37.0667 29.25 38.4 28.95C39.7333 28.65 40.9 28.1667 41.9 27.5C42.9 26.8 43.7 25.8833 44.3 24.75C44.9 23.6167 45.2 22.2 45.2 20.5C45.2 18.8333 44.9 17.4333 44.3 16.3C43.7 15.1667 42.9 14.25 41.9 13.55C40.8667 12.85 39.6833 12.35 38.35 12.05C37.0167 11.75 35.6167 11.6 34.15 11.6H28.65C27.1833 11.6 25.7833 11.75 24.45 12.05C23.1167 12.35 21.95 12.85 20.95 13.55C19.95 14.25 19.15 15.1667 18.55 16.3C17.95 17.4333 17.65 18.8333 17.65 20.5C17.65 22.1667 17.95 23.5667 18.55 24.7C19.1167 25.8333 19.9 26.75 20.9 27.45C21.9 28.15 23.0667 28.65 24.4 28.95C25.7333 29.25 27.15 29.4 28.65 29.4H34.15ZM51.15 20.5C51.15 17.8 50.7333 15.5167 49.9 13.65C49.0333 11.7833 47.85 10.2667 46.35 9.1C44.8167 7.9 43.0167 7.05 40.95 6.55C38.85 6.01667 36.5833 5.75 34.15 5.75H28.65C26.2167 5.75 23.9667 6.01667 21.9 6.55C19.8333 7.08333 18.05 7.93333 16.55 9.1C15.0167 10.2667 13.8333 11.7833 13 13.65C12.1333 15.5167 11.7 17.8 11.7 20.5C11.7 23.2 12.1333 25.4833 13 27.35C13.8333 29.2167 15.0167 30.7333 16.55 31.9C18.05 33.0667 19.8333 33.9167 21.9 34.45C23.9667 34.9833 26.2167 35.25 28.65 35.25H34.15C36.5833 35.25 38.85 35 40.95 34.5C43.0167 33.9667 44.8167 33.1167 46.35 31.95C47.85 30.75 49.0333 29.2167 49.9 27.35C50.7333 25.4833 51.15 23.2 51.15 20.5ZM53.95 20.5C53.95 23.6667 53.4667 26.3667 52.5 28.6C51.5 30.8 50.1333 32.6 48.4 34C46.6333 35.4 44.55 36.4333 42.15 37.1C39.7167 37.7333 37.05 38.05 34.15 38.05H28.65C25.75 38.05 23.1 37.7333 20.7 37.1C18.3 36.4333 16.2333 35.4 14.5 34C12.7333 32.6 11.3667 30.8 10.4 28.6C9.43333 26.3667 8.95 23.6667 8.95 20.5C8.95 17.3333 9.43333 14.65 10.4 12.45C11.3667 10.2167 12.7333 8.4 14.5 7C16.2333 5.6 18.3 4.58333 20.7 3.95C23.1 3.28333 25.75 2.95 28.65 2.95H34.15C37.05 2.95 39.7167 3.28333 42.15 3.95C44.55 4.58333 46.6333 5.6 48.4 7C50.1333 8.4 51.5 10.2167 52.5 12.45C53.4667 14.65 53.95 17.3333 53.95 20.5ZM55.2 20.5C55.2 17.1 54.6833 14.2167 53.65 11.85C52.6167 9.45 51.1667 7.5 49.3 6C47.4333 4.5 45.2167 3.41666 42.65 2.75C40.05 2.05 37.2167 1.7 34.15 1.7H28.65C26.7167 1.7 24.9 1.81667 23.2 2.05C21.4667 2.25 19.7667 2.7 18.1 3.4C16.4333 4.06666 14.7833 5.03333 13.15 6.3C11.4833 7.53333 9.76666 9.2 8 11.3C6.5 12.8 5.26667 14.7833 4.3 17.25C3.33333 19.7167 2.85 22.4667 2.85 25.5C2.85 28.8667 3.36666 31.7333 4.4 34.1C5.4 36.4667 6.83333 38.3833 8.7 39.85C10.5333 41.35 12.7333 42.4333 15.3 43.1C17.8333 43.8 20.6167 44.15 23.65 44.15H29.15C32.55 44.15 35.7167 43.7667 38.65 43C41.5833 42.2333 44 40.9167 45.9 39.05C47.8 37.3833 49.35 35.8167 50.55 34.35C51.75 32.85 52.7 31.3667 53.4 29.9C54.0667 28.4333 54.5333 26.9333 54.8 25.4C55.0667 23.8667 55.2 22.2333 55.2 20.5ZM28.65 28.15C27.35 28.15 26.1167 28.0333 24.95 27.8C23.75 27.5333 22.7 27.1 21.8 26.5C20.9 25.9 20.2 25.1167 19.7 24.15C19.1667 23.15 18.9 21.9333 18.9 20.5C18.9 19.7 19 18.9667 19.2 18.3C20.5667 17.9 22.05 17.7 23.65 17.7H29.15C30.4833 17.7 31.75 17.8333 32.95 18.1C34.15 18.3667 35.2167 18.8 36.15 19.4C37.05 20 37.7667 20.8 38.3 21.8C38.8333 22.8 39.1 24.0333 39.1 25.5C39.1 26.3 39.0333 26.9667 38.9 27.5C38.2 27.7333 37.45 27.9 36.65 28C35.85 28.1 35.0167 28.15 34.15 28.15H28.65Z" fill="#A052C6"/>
<path d="M76.992 36.352C75.328 36.352 73.7813 36.064 72.352 35.488C70.9227 34.8907 69.664 34.0693 68.576 33.024C67.5093 31.9573 66.6667 30.7307 66.048 29.344C65.4507 27.936 65.152 26.4213 65.152 24.8C65.152 23.1787 65.4507 21.6747 66.048 20.288C66.6667 18.88 67.5093 17.6533 68.576 16.608C69.664 15.5413 70.9227 14.72 72.352 14.144C73.7813 13.5467 75.328 13.248 76.992 13.248C78.656 13.248 80.2027 13.5467 81.632 14.144C83.0827 14.72 84.3413 15.5413 85.408 16.608C86.496 17.6533 87.3387 18.88 87.936 20.288C88.5333 21.6747 88.832 23.1787 88.832 24.8C88.832 26.4213 88.5333 27.936 87.936 29.344C87.3387 30.7307 86.496 31.9573 85.408 33.024C84.3413 34.0693 83.0827 34.8907 81.632 35.488C80.2027 36.064 78.656 36.352 76.992 36.352ZM76.992 32.096C78.016 32.096 78.9547 31.9147 79.808 31.552C80.6613 31.168 81.408 30.656 82.048 30.016C82.688 29.3547 83.1893 28.576 83.552 27.68C83.9147 26.784 84.096 25.824 84.096 24.8C84.096 23.7547 83.9147 22.7947 83.552 21.92C83.1893 21.024 82.688 20.256 82.048 19.616C81.408 18.9547 80.6613 18.4427 79.808 18.08C78.9547 17.696 78.016 17.504 76.992 17.504C75.9893 17.504 75.0613 17.696 74.208 18.08C73.3547 18.4427 72.608 18.9547 71.968 19.616C71.328 20.256 70.8267 21.024 70.464 21.92C70.1013 22.7947 69.92 23.744 69.92 24.768C69.92 25.8133 70.1013 26.784 70.464 27.68C70.8267 28.576 71.328 29.3547 71.968 30.016C72.608 30.656 73.3547 31.168 74.208 31.552C75.0613 31.9147 75.9893 32.096 76.992 32.096ZM93.9993 36V22.976H90.2873V19.328H93.9993V17.728C93.9993 15.8507 94.5433 14.4213 95.6313 13.44C96.7193 12.4373 98.2873 11.936 100.335 11.936C100.783 11.936 101.242 11.9573 101.711 12C102.181 12.0427 102.586 12.1173 102.927 12.224V15.904C102.522 15.8187 102.17 15.7547 101.871 15.712C101.573 15.6693 101.242 15.648 100.879 15.648C100.047 15.648 99.4179 15.8293 98.9913 16.192C98.5859 16.5333 98.3833 17.0773 98.3833 17.824V19.328H102.927V22.976H98.3833V36H93.9993ZM112.373 36.32C110.709 36.32 109.194 35.936 107.829 35.168C106.485 34.4 105.418 33.3653 104.629 32.064C103.84 30.7627 103.445 29.3013 103.445 27.68C103.445 26.0587 103.818 24.5973 104.565 23.296C105.333 21.9947 106.368 20.96 107.669 20.192C108.97 19.424 110.421 19.04 112.021 19.04C113.621 19.04 115.04 19.4347 116.277 20.224C117.514 21.0133 118.485 22.08 119.189 23.424C119.914 24.768 120.277 26.2933 120.277 28V29.152H107.925C108.117 29.8133 108.426 30.4107 108.853 30.944C109.301 31.4773 109.845 31.8933 110.485 32.192C111.146 32.4907 111.85 32.64 112.597 32.64C113.344 32.64 114.026 32.5227 114.645 32.288C115.285 32.0533 115.829 31.7227 116.277 31.296L119.157 33.92C118.133 34.752 117.077 35.36 115.989 35.744C114.922 36.128 113.717 36.32 112.373 36.32ZM107.861 26.016H115.957C115.808 25.3547 115.53 24.7787 115.125 24.288C114.741 23.776 114.272 23.3813 113.717 23.104C113.184 22.8053 112.586 22.656 111.925 22.656C111.242 22.656 110.624 22.7947 110.069 23.072C109.514 23.3493 109.045 23.744 108.661 24.256C108.298 24.7467 108.032 25.3333 107.861 26.016ZM122.643 36V19.328H127.027V20.704C128.286 19.5733 129.843 19.008 131.699 19.008C133 19.008 134.142 19.296 135.123 19.872C136.126 20.4267 136.904 21.2053 137.459 22.208C138.014 23.1893 138.291 24.3413 138.291 25.664V36H133.907V26.304C133.907 25.216 133.598 24.3627 132.979 23.744C132.36 23.104 131.518 22.784 130.451 22.784C129.704 22.784 129.043 22.9333 128.467 23.232C127.891 23.5093 127.411 23.9147 127.027 24.448V36H122.643Z" fill="white"/>
<path d="M147.6 36.32C146.32 36.32 145.178 36.0427 144.176 35.488C143.194 34.912 142.416 34.1227 141.84 33.12C141.285 32.1173 141.008 30.9653 141.008 29.664V19.328H145.392V29.024C145.392 30.0907 145.701 30.944 146.32 31.584C146.96 32.224 147.813 32.544 148.88 32.544C149.605 32.544 150.256 32.4053 150.832 32.128C151.429 31.8293 151.92 31.4133 152.304 30.88V19.328H156.688V36H152.304V34.656C151.024 35.7653 149.456 36.32 147.6 36.32ZM159.784 42.528V19.328H164.104V20.704C165.47 19.6373 167.048 19.104 168.84 19.104C170.419 19.104 171.848 19.488 173.128 20.256C174.408 21.024 175.422 22.0587 176.168 23.36C176.936 24.64 177.32 26.08 177.32 27.68C177.32 29.28 176.936 30.7307 176.168 32.032C175.4 33.312 174.366 34.336 173.064 35.104C171.763 35.8507 170.312 36.224 168.712 36.224C167.88 36.224 167.08 36.1173 166.312 35.904C165.544 35.6693 164.83 35.3387 164.168 34.912V42.528H159.784ZM168.136 32.512C169.054 32.512 169.875 32.2987 170.6 31.872C171.347 31.4453 171.934 30.8693 172.36 30.144C172.787 29.4187 173 28.5973 173 27.68C173 26.7627 172.787 25.9413 172.36 25.216C171.934 24.4693 171.347 23.8933 170.6 23.488C169.875 23.0613 169.054 22.848 168.136 22.848C167.326 22.848 166.579 22.9867 165.896 23.264C165.235 23.52 164.659 23.9147 164.168 24.448V30.944C164.638 31.4347 165.214 31.8187 165.896 32.096C166.6 32.3733 167.347 32.512 168.136 32.512Z" fill="#585858"/>
</svg>
