<svg width="24" height="24" viewBox="0 0 24 24" fill="none" xmlns="http://www.w3.org/2000/svg">
<path d="M4 24H20V22H24V16C24 13.083 22.0685 10.6095 19.4175 9.7895C20.6675 8.989 21.5 7.591 21.5 6C21.5 3.519 19.4815 1.5 17 1.5C16.5725 1.5 16.1485 1.564 15.7345 1.6865C14.818 0.655 13.4855 0 12 0C10.5145 0 9.182 0.655 8.2655 1.6865C7.8515 1.564 7.4275 1.5 7 1.5C4.5185 1.5 2.5 3.519 2.5 6C2.5 7.591 3.3325 8.989 4.5825 9.7895C1.9315 10.6095 0 13.083 0 16V22H4V24ZM19 23H5V22V15.5C5 15.333 5.0105 15.168 5.025 15.0045C5.03 14.951 5.0365 14.898 5.0425 14.8445C5.056 14.7315 5.0735 14.62 5.094 14.5095C5.1045 14.4535 5.113 14.397 5.125 14.3415C5.156 14.198 5.1925 14.057 5.234 13.9175C5.255 13.8485 5.28 13.7815 5.3035 13.7135C5.3305 13.6345 5.359 13.5565 5.3895 13.479C5.419 13.4045 5.45 13.3305 5.4825 13.2575C5.5145 13.186 5.5495 13.116 5.5845 13.046C5.6355 12.944 5.6895 12.844 5.7465 12.7455C5.7965 12.66 5.8465 12.5745 5.9005 12.492C5.9425 12.428 5.9875 12.366 6.032 12.3035C6.079 12.2375 6.1275 12.1725 6.1775 12.109C6.2235 12.0505 6.2695 11.9925 6.318 11.936C6.381 11.8625 6.4465 11.7915 6.513 11.7215C6.5745 11.6565 6.6375 11.5925 6.702 11.5305C6.7815 11.4545 6.862 11.38 6.946 11.3085C7.001 11.262 7.058 11.2175 7.115 11.173C7.1805 11.122 7.2465 11.072 7.3145 11.024C7.3775 10.979 7.4405 10.9345 7.506 10.892C7.572 10.849 7.64 10.8095 7.7075 10.7695C7.835 10.694 7.966 10.6235 8.1005 10.558C8.168 10.525 8.2345 10.4905 8.3035 10.46L8.384 10.424C9.036 10.1515 9.7505 10 10.5 10H13.5C14.2495 10 14.964 10.1515 15.6155 10.4245L15.696 10.4605C15.765 10.4905 15.8315 10.5255 15.899 10.5585C16.0335 10.624 16.1645 10.6945 16.292 10.77C16.36 10.81 16.428 10.8495 16.4935 10.8925C16.5585 10.935 16.622 10.9795 16.685 11.0245C16.7525 11.0725 16.819 11.1225 16.8845 11.1735C16.9415 11.218 16.9985 11.2625 17.0535 11.309C17.1375 11.38 17.218 11.455 17.2975 11.531C17.3625 11.593 17.425 11.657 17.4865 11.722C17.553 11.792 17.619 11.863 17.6815 11.9365C17.7295 11.993 17.776 12.051 17.822 12.1095C17.872 12.173 17.9205 12.238 17.9675 12.304C18.012 12.3665 18.0575 12.428 18.099 12.4925C18.153 12.575 18.2035 12.6605 18.253 12.746C18.31 12.8445 18.364 12.945 18.415 13.0465C18.45 13.1165 18.485 13.1865 18.517 13.258C18.55 13.331 18.5805 13.405 18.61 13.4795C18.6405 13.5565 18.6685 13.635 18.696 13.714C18.7195 13.782 18.7445 13.8495 18.7655 13.918C18.8075 14.057 18.844 14.1985 18.8745 14.342C18.8865 14.3975 18.8955 14.454 18.9055 14.51C18.9255 14.6205 18.9435 14.7325 18.957 14.845C18.9635 14.898 18.97 14.9515 18.9745 15.005C18.9895 15.168 19 15.333 19 15.5V22V23ZM23 16V21H20V15.5C20 15.2625 19.9855 15.0285 19.9605 14.7975C19.9545 14.743 19.943 14.69 19.936 14.636C19.912 14.4575 19.884 14.28 19.846 14.1065C19.8335 14.0495 19.8165 13.9945 19.8025 13.938C19.7605 13.7685 19.714 13.601 19.659 13.437C19.6405 13.3815 19.619 13.3275 19.599 13.273C19.54 13.1115 19.4755 12.9525 19.4045 12.7975C19.3795 12.743 19.353 12.689 19.326 12.6355C19.2515 12.484 19.1715 12.3365 19.0855 12.192C19.054 12.139 19.0225 12.086 18.989 12.0335C18.899 11.892 18.8035 11.755 18.7035 11.621C18.667 11.572 18.632 11.5225 18.594 11.4745C18.4845 11.336 18.368 11.2035 18.2475 11.0745C18.2135 11.038 18.182 10.9995 18.147 10.964C17.989 10.802 17.824 10.647 17.65 10.5025C20.6135 10.582 23 13.0175 23 16ZM16.3615 2.5605C16.5725 2.5205 16.7855 2.5 17 2.5C18.9295 2.5 20.5 4.07 20.5 6C20.5 7.93 18.9295 9.5 17 9.5C16.3135 9.5 15.653 9.3 15.087 8.928C15.0945 8.9225 15.1005 8.9155 15.1075 8.9095C15.538 8.567 15.909 8.155 16.207 7.6905C16.2165 7.6755 16.225 7.6605 16.2345 7.6455C16.321 7.5075 16.4005 7.3655 16.4735 7.219C16.4855 7.195 16.4965 7.171 16.508 7.147C16.5745 7.0085 16.634 6.8665 16.6875 6.721C16.6985 6.691 16.71 6.661 16.7205 6.631C16.769 6.4915 16.8105 6.349 16.8465 6.204C16.8555 6.168 16.866 6.1325 16.874 6.0965C16.906 5.955 16.93 5.811 16.9495 5.665C16.955 5.6265 16.963 5.5885 16.967 5.5495C16.988 5.3695 17 5.186 17 5C17 4.802 16.9855 4.608 16.963 4.416C16.956 4.355 16.9445 4.295 16.935 4.234C16.914 4.1 16.889 3.9675 16.858 3.837C16.843 3.7735 16.827 3.7105 16.8095 3.648C16.769 3.5035 16.7215 3.362 16.6685 3.2235C16.6535 3.185 16.6415 3.1455 16.626 3.1075C16.55 2.9225 16.4635 2.7435 16.3665 2.57C16.364 2.5665 16.363 2.5635 16.3615 2.5605ZM15.0815 2.4525L15.112 2.492C15.1365 2.5225 15.1585 2.5545 15.182 2.5855C15.437 2.921 15.632 3.2865 15.769 3.672C15.778 3.697 15.788 3.7215 15.7965 3.747C15.856 3.9265 15.901 4.11 15.9345 4.297C15.9415 4.336 15.947 4.376 15.9525 4.4155C15.9805 4.608 16 4.8025 16 5C16 5.164 15.9875 5.326 15.9675 5.4865C15.963 5.524 15.956 5.561 15.9505 5.5985C15.93 5.731 15.9045 5.862 15.871 5.9905C15.864 6.0175 15.8575 6.045 15.85 6.072C15.7595 6.394 15.6305 6.703 15.4645 6.991C15.4615 6.996 15.4585 7.001 15.4555 7.006C15.375 7.1445 15.285 7.278 15.188 7.406C15.179 7.4175 15.1705 7.4295 15.1615 7.4415C14.958 7.705 14.721 7.9435 14.4545 8.1515C14.439 8.1635 14.4225 8.175 14.407 8.187C14.2835 8.2805 14.1545 8.3675 14.0195 8.447C13.9955 8.461 13.973 8.4765 13.9485 8.49L13.8915 8.523C13.3275 8.827 12.684 9 12 9C11.316 9 10.6725 8.827 10.109 8.523L10.052 8.49C10.028 8.4765 10.005 8.461 9.981 8.447C9.846 8.3675 9.717 8.2805 9.5935 8.187C9.5775 8.175 9.5615 8.1635 9.546 8.1515C9.28 7.9435 9.043 7.705 8.839 7.4415C8.83 7.43 8.8215 7.418 8.8125 7.406C8.7155 7.278 8.626 7.1445 8.545 7.006C8.542 7.001 8.539 6.996 8.536 6.991C8.3695 6.7025 8.2405 6.3935 8.15 6.0715C8.1425 6.045 8.136 6.0175 8.129 5.991C8.0955 5.862 8.07 5.731 8.0495 5.5985C8.044 5.561 8.037 5.5245 8.0325 5.4865C8.0125 5.326 8 5.164 8 5C8 4.8025 8.0195 4.608 8.0475 4.416C8.0535 4.3765 8.0585 4.337 8.0655 4.2975C8.099 4.111 8.144 3.927 8.2035 3.7475C8.212 3.722 8.222 3.6975 8.231 3.6725C8.368 3.287 8.563 2.921 8.818 2.586C8.8415 2.555 8.8635 2.5225 8.888 2.4925L8.9185 2.453C9.653 1.566 10.7615 1 12 1C13.2385 1 14.347 1.566 15.0815 2.4525ZM3.5 6C3.5 4.07 5.0705 2.5 7 2.5C7.2145 2.5 7.4275 2.5205 7.6385 2.5605C7.637 2.5635 7.6355 2.567 7.634 2.57C7.5375 2.743 7.4505 2.922 7.3745 3.107C7.3585 3.1455 7.3465 3.185 7.3315 3.224C7.2785 3.3625 7.231 3.504 7.1905 3.648C7.173 3.7105 7.157 3.7735 7.142 3.837C7.111 3.9675 7.086 4.1 7.065 4.234C7.0555 4.2945 7.0445 4.3545 7.037 4.416C7.0145 4.608 7 4.802 7 5C7 5.186 7.012 5.3695 7.032 5.55C7.0365 5.589 7.0445 5.6265 7.0495 5.665C7.069 5.811 7.0935 5.9555 7.125 6.097C7.133 6.133 7.1435 6.168 7.1525 6.2035C7.1885 6.3485 7.23 6.4915 7.2785 6.6315C7.289 6.662 7.3005 6.6915 7.3115 6.722C7.365 6.867 7.425 7.009 7.491 7.1475C7.5025 7.1715 7.514 7.196 7.526 7.22C7.599 7.3665 7.6785 7.5085 7.765 7.6465C7.7745 7.6615 7.783 7.6765 7.7925 7.6915C8.0905 8.156 8.462 8.5675 8.892 8.9105C8.899 8.9165 8.9055 8.923 8.9125 8.929C8.347 9.3 7.6865 9.5 7 9.5C5.0705 9.5 3.5 7.93 3.5 6ZM1 21V16C1 13.0175 3.3865 10.582 6.3505 10.502C6.1765 10.6465 6.0115 10.802 5.8535 10.9635C5.8185 10.999 5.787 11.0375 5.753 11.074C5.6325 11.203 5.516 11.3355 5.406 11.4745C5.3685 11.522 5.3335 11.5715 5.297 11.6205C5.1965 11.7545 5.101 11.8915 5.011 12.0335C4.978 12.086 4.9465 12.1385 4.9145 12.192C4.8285 12.3365 4.7485 12.484 4.674 12.6355C4.6475 12.6895 4.621 12.743 4.5955 12.7975C4.524 12.9525 4.46 13.1115 4.401 13.273C4.381 13.328 4.3595 13.3815 4.341 13.437C4.286 13.6015 4.2395 13.769 4.197 13.939C4.183 13.995 4.1665 14.05 4.154 14.1065C4.116 14.2805 4.088 14.458 4.064 14.637C4.0565 14.691 4.0455 14.7435 4.0395 14.798C4.0145 15.0285 4 15.2625 4 15.5V21H1Z" fill="white"/>
</svg>
