<svg width="54" height="44" viewBox="0 0 54 44" fill="none" xmlns="http://www.w3.org/2000/svg">
<path d="M26.65 31.2C24.7167 31.2 22.9167 31 21.25 30.6C19.55 30.1667 18.0833 29.5 16.85 28.6C15.5833 27.6667 14.6 26.4667 13.9 25C13.2 23.5 12.85 21.6667 12.85 19.5C12.85 17.3667 13.2167 15.55 13.95 14.05C14.65 12.55 15.6167 11.35 16.85 10.45C18.0833 9.51667 19.55 8.85 21.25 8.45C22.9167 8.01666 24.7167 7.8 26.65 7.8H32.15C34.1167 7.8 35.95 8.01666 37.65 8.45C39.3167 8.85 40.7667 9.51667 42 10.45C43.2333 11.35 44.2167 12.55 44.95 14.05C45.65 15.55 46 17.3667 46 19.5C46 21.6667 45.65 23.5 44.95 25C44.2167 26.4667 43.2333 27.6667 42 28.6C40.7667 29.5333 39.3167 30.2 37.65 30.6C35.95 31 34.1167 31.2 32.15 31.2H26.65ZM32.15 28.4C33.65 28.4 35.0667 28.25 36.4 27.95C37.7333 27.65 38.9 27.1667 39.9 26.5C40.9 25.8 41.7 24.8833 42.3 23.75C42.9 22.6167 43.2 21.2 43.2 19.5C43.2 17.8333 42.9 16.4333 42.3 15.3C41.7 14.1667 40.9 13.25 39.9 12.55C38.8667 11.85 37.6833 11.35 36.35 11.05C35.0167 10.75 33.6167 10.6 32.15 10.6H26.65C25.1833 10.6 23.7833 10.75 22.45 11.05C21.1167 11.35 19.95 11.85 18.95 12.55C17.95 13.25 17.15 14.1667 16.55 15.3C15.95 16.4333 15.65 17.8333 15.65 19.5C15.65 21.1667 15.95 22.5667 16.55 23.7C17.1167 24.8333 17.9 25.75 18.9 26.45C19.9 27.15 21.0667 27.65 22.4 27.95C23.7333 28.25 25.15 28.4 26.65 28.4H32.15ZM49.15 19.5C49.15 16.8 48.7333 14.5167 47.9 12.65C47.0333 10.7833 45.85 9.26667 44.35 8.1C42.8167 6.9 41.0167 6.05 38.95 5.55C36.85 5.01667 34.5833 4.75 32.15 4.75H26.65C24.2167 4.75 21.9667 5.01667 19.9 5.55C17.8333 6.08333 16.05 6.93333 14.55 8.1C13.0167 9.26667 11.8333 10.7833 11 12.65C10.1333 14.5167 9.7 16.8 9.7 19.5C9.7 22.2 10.1333 24.4833 11 26.35C11.8333 28.2167 13.0167 29.7333 14.55 30.9C16.05 32.0667 17.8333 32.9167 19.9 33.45C21.9667 33.9833 24.2167 34.25 26.65 34.25H32.15C34.5833 34.25 36.85 34 38.95 33.5C41.0167 32.9667 42.8167 32.1167 44.35 30.95C45.85 29.75 47.0333 28.2167 47.9 26.35C48.7333 24.4833 49.15 22.2 49.15 19.5ZM51.95 19.5C51.95 22.6667 51.4667 25.3667 50.5 27.6C49.5 29.8 48.1333 31.6 46.4 33C44.6333 34.4 42.55 35.4333 40.15 36.1C37.7167 36.7333 35.05 37.05 32.15 37.05H26.65C23.75 37.05 21.1 36.7333 18.7 36.1C16.3 35.4333 14.2333 34.4 12.5 33C10.7333 31.6 9.36667 29.8 8.4 27.6C7.43333 25.3667 6.95 22.6667 6.95 19.5C6.95 16.3333 7.43333 13.65 8.4 11.45C9.36667 9.21667 10.7333 7.4 12.5 6C14.2333 4.6 16.3 3.58333 18.7 2.95C21.1 2.28333 23.75 1.95 26.65 1.95H32.15C35.05 1.95 37.7167 2.28333 40.15 2.95C42.55 3.58333 44.6333 4.6 46.4 6C48.1333 7.4 49.5 9.21667 50.5 11.45C51.4667 13.65 51.95 16.3333 51.95 19.5ZM53.2 19.5C53.2 16.1 52.6833 13.2167 51.65 10.85C50.6167 8.45 49.1667 6.5 47.3 5C45.4333 3.5 43.2167 2.41666 40.65 1.75C38.05 1.05 35.2167 0.699999 32.15 0.699999H26.65C24.7167 0.699999 22.9 0.816666 21.2 1.05C19.4667 1.25 17.7667 1.7 16.1 2.4C14.4333 3.06666 12.7833 4.03333 11.15 5.3C9.48333 6.53333 7.76666 8.2 6 10.3C4.5 11.8 3.26667 13.7833 2.3 16.25C1.33333 18.7167 0.849996 21.4667 0.849996 24.5C0.849996 27.8667 1.36666 30.7333 2.4 33.1C3.4 35.4667 4.83333 37.3833 6.7 38.85C8.53333 40.35 10.7333 41.4333 13.3 42.1C15.8333 42.8 18.6167 43.15 21.65 43.15H27.15C30.55 43.15 33.7167 42.7667 36.65 42C39.5833 41.2333 42 39.9167 43.9 38.05C45.8 36.3833 47.35 34.8167 48.55 33.35C49.75 31.85 50.7 30.3667 51.4 28.9C52.0667 27.4333 52.5333 25.9333 52.8 24.4C53.0667 22.8667 53.2 21.2333 53.2 19.5ZM26.65 27.15C25.35 27.15 24.1167 27.0333 22.95 26.8C21.75 26.5333 20.7 26.1 19.8 25.5C18.9 24.9 18.2 24.1167 17.7 23.15C17.1667 22.15 16.9 20.9333 16.9 19.5C16.9 18.7 17 17.9667 17.2 17.3C18.5667 16.9 20.05 16.7 21.65 16.7H27.15C28.4833 16.7 29.75 16.8333 30.95 17.1C32.15 17.3667 33.2167 17.8 34.15 18.4C35.05 19 35.7667 19.8 36.3 20.8C36.8333 21.8 37.1 23.0333 37.1 24.5C37.1 25.3 37.0333 25.9667 36.9 26.5C36.2 26.7333 35.45 26.9 34.65 27C33.85 27.1 33.0167 27.15 32.15 27.15H26.65Z" fill="#A052C6"/>
</svg>
