<svg width="20" height="20" viewBox="0 0 20 20" fill="none" xmlns="http://www.w3.org/2000/svg">
<path d="M10.9 18.955C10.6042 18.985 10.3042 19 9.99999 19C5.0293 19 1 14.9707 1 9.99999C1 5.0293 5.0293 1 9.99999 1C14.9707 1 19 5.0293 19 9.99999C19 10.3042 18.985 10.6042 18.955 10.9" stroke="white" stroke-width="1.5" stroke-linecap="round" stroke-linejoin="round"/>
<path d="M5.9502 14.5C7.21199 13.1779 9.11909 12.6136 10.9002 12.8746M12.2457 7.75C12.2457 8.992 11.2377 10 9.99299 10C9.69722 10.0005 9.40425 9.94262 9.13085 9.82976C8.85745 9.7169 8.60899 9.55124 8.39968 9.34226C8.19036 9.13328 8.02431 8.88509 7.91101 8.61187C7.79771 8.33865 7.73939 8.04578 7.73939 7.75C7.73939 6.508 8.74739 5.5 9.99299 5.5C10.2887 5.49965 10.5816 5.55758 10.8549 5.6705C11.1282 5.78341 11.3765 5.94909 11.5857 6.15806C11.7949 6.36702 11.9609 6.61518 12.0742 6.88834C12.1874 7.1615 12.2457 7.4543 12.2457 7.75Z" stroke="white" stroke-width="1.5" stroke-linecap="round" stroke-linejoin="round"/>
<path d="M15.8502 18.9999C17.5899 18.9999 19.0002 17.5896 19.0002 15.8499C19.0002 14.1103 17.5899 12.7 15.8502 12.7C14.1105 12.7 12.7002 14.1103 12.7002 15.8499C12.7002 17.5896 14.1105 18.9999 15.8502 18.9999Z" fill="#54D287"/>
</svg>
