<svg width="15" height="15" viewBox="0 0 15 15" fill="none" xmlns="http://www.w3.org/2000/svg">
<path d="M1.22331 0.091562C0.553189 -0.243327 -0.188553 0.396075 0.0435697 1.10823L1.5488 5.7228C1.59138 5.85317 1.66888 5.96937 1.77288 6.05876C1.87688 6.14815 2.00339 6.20732 2.13867 6.22982L8.08611 7.22099C8.39923 7.27349 8.39923 7.72351 8.08611 7.77601L2.13905 8.76718C2.00377 8.78968 1.87725 8.84885 1.77325 8.93824C1.66925 9.02764 1.59175 9.14383 1.54918 9.2742L0.0435697 13.8914C-0.188928 14.6039 0.553189 15.2433 1.22331 14.9084L14.5334 8.25491C15.1555 7.94364 15.1555 7.05598 14.5334 6.74509L1.22331 0.091562Z" fill="white"/>
</svg>
