<svg width="25" height="24" viewBox="0 0 25 24" fill="none" xmlns="http://www.w3.org/2000/svg">
<path fill-rule="evenodd" clip-rule="evenodd" d="M12.6392 7.10356C14.2073 5.90577 16.4584 6.02368 17.892 7.45731C19.454 9.0194 19.454 11.552 17.892 13.1142L13.0433 17.9629C12.9361 18.0701 12.7907 18.1303 12.6392 18.1303C12.4876 18.1303 12.3423 18.0701 12.2352 17.9629L7.38642 13.1142C5.82432 11.552 5.82432 9.0194 7.38642 7.45731C8.82003 6.02368 11.0711 5.90577 12.6392 7.10356ZM17.0839 8.26542C15.9681 7.14964 14.1591 7.14964 13.0433 8.26542C12.8201 8.48859 12.4583 8.48859 12.2352 8.26542C11.1194 7.14964 9.31032 7.14964 8.19454 8.26542C7.07875 9.3812 7.07875 11.1903 8.19454 12.3061L12.6392 16.7508L17.0839 12.3061C18.1996 11.1903 18.1996 9.3812 17.0839 8.26542Z" fill="white"/>
<path fill-rule="evenodd" clip-rule="evenodd" d="M7.63424 1.02751C8.23213 0.762002 8.85579 0.543888 9.50042 0.377968L9.78529 1.48476C9.20253 1.63475 8.6387 1.83193 8.09808 2.07201L7.63424 1.02751ZM1.93474 6.3053C2.56494 5.13842 3.38259 4.08812 4.34725 3.19456L5.12389 4.03298C4.25045 4.84206 3.51041 5.7928 2.94032 6.84839L1.93474 6.3053ZM0.5 11.9999C0.5 11.3299 0.55496 10.6723 0.660743 10.0315L1.78834 10.2177C1.69267 10.7971 1.64286 11.3925 1.64286 11.9999C1.64286 12.6073 1.69267 13.2026 1.78834 13.7821L0.660743 13.9682C0.55496 13.3274 0.5 12.6698 0.5 11.9999ZM4.34723 20.8053C3.38259 19.9117 2.56494 18.8614 1.93474 17.6945L2.94032 17.1514C3.51041 18.207 4.25043 19.1577 5.12387 19.9667L4.34723 20.8053ZM9.50042 23.6218C8.85579 23.4559 8.23213 23.2377 7.63424 22.9722L8.09808 21.9278C8.6387 22.1679 9.20253 22.365 9.78529 22.515L9.50042 23.6218Z" fill="white"/>
<path fill-rule="evenodd" clip-rule="evenodd" d="M23.3571 12C23.3571 6.00376 18.4962 1.14286 12.5 1.14286V0C19.1274 0 24.5 5.37258 24.5 12C24.5 18.6274 19.1274 24 12.5 24V22.8571C18.4962 22.8571 23.3571 17.9962 23.3571 12Z" fill="white"/>
</svg>
