<svg width="29" height="18" viewBox="0 0 29 18" fill="none" xmlns="http://www.w3.org/2000/svg">
<path fill-rule="evenodd" clip-rule="evenodd" d="M1.38095 0.0238037H19.3333C19.6996 0.0238037 20.0508 0.169297 20.3098 0.428276C20.5688 0.687254 20.7143 1.0385 20.7143 1.40476V16.5952C20.7143 16.9615 20.5688 17.3127 20.3098 17.5717C20.0508 17.8307 19.6996 17.9762 19.3333 17.9762H1.38095C1.0147 17.9762 0.66345 17.8307 0.404472 17.5717C0.145493 17.3127 0 16.9615 0 16.5952V1.40476C0 1.0385 0.145493 0.687254 0.404472 0.428276C0.66345 0.169297 1.0147 0.0238037 1.38095 0.0238037ZM22.0952 6.23809L26.756 2.50952C26.959 2.34696 27.2038 2.24504 27.4622 2.2155C27.7206 2.18597 27.9821 2.23001 28.2166 2.34256C28.4511 2.45512 28.649 2.6316 28.7876 2.8517C28.9262 3.0718 28.9998 3.32656 29 3.58666V14.4133C28.9998 14.6734 28.9262 14.9282 28.7876 15.1483C28.649 15.3684 28.4511 15.5449 28.2166 15.6574C27.9821 15.77 27.7206 15.814 27.4622 15.7845C27.2038 15.7549 26.959 15.653 26.756 15.4905L22.0952 11.7619V6.23809Z" fill="white"/>
</svg>
